<svg xmlns="http://www.w3.org/2000/svg" xmlns:xlink="http://www.w3.org/1999/xlink" width="304" zoomAndPan="magnify" viewBox="0 0 228 119.249998" height="159" preserveAspectRatio="xMidYMid meet" version="1.0"><defs><g/><clipPath id="cecad850ce"><path d="M 38 117 L 190 117 L 190 118.503906 L 38 118.503906 Z M 38 117 " clip-rule="nonzero"/></clipPath></defs><g fill="#ffffff" fill-opacity="1"><g transform="translate(12.610356, 100.436357)"><g><path d="M -3.808594 -7.992188 C -3.800781 -7.917969 -3.800781 -7.84375 -3.785156 -7.792969 C -3.773438 -7.730469 -3.757812 -7.679688 -3.742188 -7.640625 C -3.714844 -7.585938 -3.699219 -7.546875 -3.695312 -7.496094 C -3.683594 -7.433594 -3.710938 -7.363281 -3.761719 -7.289062 C -3.820312 -7.179688 -3.90625 -7.046875 -4.007812 -6.898438 C -4.113281 -6.734375 -4.195312 -6.617188 -4.28125 -6.546875 C -4.3125 -6.515625 -4.339844 -6.496094 -4.367188 -6.476562 C -4.398438 -6.457031 -4.421875 -6.453125 -4.46875 -6.460938 C -4.515625 -6.46875 -4.535156 -6.507812 -4.519531 -6.582031 L -4.453125 -6.933594 C -4.414062 -7.074219 -4.394531 -7.179688 -4.378906 -7.25 L -4.289062 -7.71875 L -4.164062 -8.367188 L -4.042969 -9.050781 C -4 -9.273438 -3.976562 -9.476562 -3.945312 -9.640625 L -6.414062 -10.117188 C -6.601562 -10.152344 -6.773438 -10.101562 -6.921875 -9.957031 C -7.070312 -9.816406 -7.222656 -9.589844 -7.402344 -9.304688 C -7.421875 -9.261719 -7.453125 -9.21875 -7.480469 -9.199219 C -7.511719 -9.167969 -7.550781 -9.164062 -7.597656 -9.171875 C -7.691406 -9.191406 -7.71875 -9.292969 -7.683594 -9.496094 C -7.671875 -9.554688 -7.632812 -9.691406 -7.578125 -9.902344 C -7.515625 -10.109375 -7.4375 -10.3125 -7.351562 -10.515625 C -7.289062 -10.652344 -7.230469 -10.773438 -7.160156 -10.871094 C -7.085938 -10.953125 -7.003906 -11 -6.917969 -10.984375 C -6.800781 -10.960938 -6.699219 -10.917969 -6.621094 -10.878906 C -6.539062 -10.8125 -6.421875 -10.777344 -6.269531 -10.75 L 0.863281 -9.378906 L 1.570312 -9.242188 C 1.847656 -9.175781 2.117188 -9.113281 2.371094 -9.039062 C 2.625 -8.964844 2.839844 -8.875 3.019531 -8.792969 C 3.195312 -8.683594 3.273438 -8.585938 3.253906 -8.480469 C 3.226562 -8.335938 2.742188 -8.359375 1.8125 -8.535156 L -3.578125 -9.574219 L -3.652344 -9.195312 C -3.667969 -9.050781 -3.683594 -8.910156 -3.710938 -8.765625 C -3.726562 -8.613281 -3.742188 -8.46875 -3.765625 -8.339844 C -3.78125 -8.195312 -3.789062 -8.085938 -3.808594 -7.992188 Z M -5.855469 -2.796875 C -6.046875 -2.832031 -6.199219 -2.789062 -6.34375 -2.683594 C -6.476562 -2.5625 -6.628906 -2.347656 -6.796875 -2.039062 C -6.816406 -1.992188 -6.851562 -1.949219 -6.878906 -1.933594 C -6.90625 -1.902344 -6.945312 -1.894531 -6.992188 -1.90625 C -7.085938 -1.921875 -7.117188 -2.027344 -7.078125 -2.226562 L -7.046875 -2.390625 C -7.019531 -2.460938 -6.992188 -2.539062 -6.972656 -2.644531 C -6.941406 -2.738281 -6.910156 -2.839844 -6.875 -2.957031 C -6.832031 -3.058594 -6.800781 -3.160156 -6.753906 -3.273438 C -6.671875 -3.441406 -6.613281 -3.566406 -6.550781 -3.625 C -6.492188 -3.675781 -6.429688 -3.699219 -6.359375 -3.6875 L -6.273438 -3.671875 C -6.242188 -3.652344 -6.207031 -3.632812 -6.171875 -3.628906 C -6.117188 -3.605469 -6.058594 -3.59375 -6.011719 -3.582031 C -5.941406 -3.558594 -5.871094 -3.546875 -5.789062 -3.527344 L -2.222656 -2.84375 C -1.964844 -2.792969 -1.824219 -2.890625 -1.777344 -3.136719 C -1.628906 -3.914062 -1.554688 -4.742188 -1.558594 -5.609375 C -1.566406 -6.464844 -1.609375 -7.3125 -1.695312 -8.136719 C -1.699219 -8.1875 -1.699219 -8.234375 -1.6875 -8.304688 C -1.664062 -8.351562 -1.636719 -8.382812 -1.582031 -8.394531 C -1.496094 -8.402344 -1.441406 -8.367188 -1.417969 -8.304688 C -1.386719 -8.222656 -1.371094 -8.171875 -1.367188 -8.132812 C -1.292969 -7.679688 -1.238281 -7.21875 -1.1875 -6.71875 C -1.136719 -6.210938 -1.097656 -5.714844 -1.089844 -5.25 C -1.0625 -4.757812 -1.0625 -4.316406 -1.078125 -3.90625 C -1.089844 -3.480469 -1.128906 -3.132812 -1.183594 -2.863281 C -1.25 -2.523438 -1.375 -2.300781 -1.589844 -2.199219 C -1.796875 -2.089844 -2.078125 -2.070312 -2.433594 -2.140625 Z M -5.855469 -2.796875 "/></g></g></g><g fill="#ffffff" fill-opacity="1"><g transform="translate(16.368732, 83.578908)"><g><path d="M -1.582031 -9.761719 L -1.375 -10.3125 C -1.332031 -10.421875 -1.308594 -10.515625 -1.316406 -10.609375 C -1.3125 -10.683594 -1.324219 -10.753906 -1.347656 -10.824219 C -1.363281 -10.882812 -1.378906 -10.953125 -1.394531 -11.007812 C -1.398438 -11.0625 -1.402344 -11.128906 -1.375 -11.195312 C -1.332031 -11.304688 -1.28125 -11.414062 -1.234375 -11.539062 C -1.167969 -11.640625 -1.101562 -11.757812 -1.015625 -11.878906 C -0.960938 -11.960938 -0.894531 -12 -0.832031 -12.027344 C -0.753906 -12.035156 -0.6875 -12.035156 -0.632812 -12.015625 C -0.464844 -11.953125 -0.425781 -11.8125 -0.511719 -11.585938 L -1.246094 -9.632812 L 2.152344 -8.355469 L 2.828125 -8.105469 C 3.09375 -7.992188 3.347656 -7.882812 3.585938 -7.769531 C 3.824219 -7.652344 4.019531 -7.527344 4.183594 -7.417969 C 4.335938 -7.28125 4.394531 -7.167969 4.359375 -7.066406 C 4.308594 -6.933594 3.832031 -7.035156 2.949219 -7.367188 L 0.984375 -8.105469 C 0.875 -7.199219 0.71875 -6.308594 0.527344 -5.421875 C 0.339844 -4.519531 0.144531 -3.621094 -0.09375 -2.710938 C -0.113281 -2.589844 -0.125 -2.492188 -0.128906 -2.417969 C -0.128906 -2.316406 -0.121094 -2.234375 -0.109375 -2.164062 C -0.0976562 -2.058594 -0.105469 -1.972656 -0.105469 -1.898438 C -0.105469 -1.792969 -0.15625 -1.699219 -0.246094 -1.589844 C -0.410156 -1.394531 -0.589844 -1.222656 -0.777344 -1.0625 C -0.957031 -0.898438 -1.085938 -0.792969 -1.171875 -0.761719 C -1.191406 -0.742188 -1.21875 -0.738281 -1.246094 -0.738281 C -1.277344 -0.722656 -1.304688 -0.71875 -1.335938 -0.734375 C -1.398438 -0.742188 -1.421875 -0.777344 -1.421875 -0.855469 C -1.414062 -0.902344 -1.390625 -0.96875 -1.351562 -1.035156 C -1.242188 -1.222656 -1.136719 -1.4375 -1.050781 -1.664062 C -0.949219 -1.867188 -0.875 -2.070312 -0.796875 -2.269531 C -0.734375 -2.441406 -0.65625 -2.652344 -0.574219 -2.929688 C -0.492188 -3.191406 -0.402344 -3.492188 -0.308594 -3.84375 L -2.105469 -4.515625 C -2.246094 -4.210938 -2.410156 -3.941406 -2.621094 -3.722656 C -2.8125 -3.488281 -3.03125 -3.316406 -3.277344 -3.203125 C -3.511719 -3.058594 -3.765625 -2.988281 -4.050781 -2.980469 C -4.320312 -2.953125 -4.59375 -3.007812 -4.886719 -3.117188 C -5.152344 -3.21875 -5.394531 -3.359375 -5.589844 -3.558594 C -5.773438 -3.746094 -5.921875 -3.964844 -6.03125 -4.222656 C -6.132812 -4.46875 -6.1875 -4.730469 -6.195312 -5.042969 C -6.203125 -5.328125 -6.167969 -5.632812 -6.082031 -5.960938 L -6.117188 -5.972656 C -6.273438 -6.03125 -6.433594 -5.976562 -6.613281 -5.8125 C -6.632812 -5.792969 -6.667969 -5.769531 -6.695312 -5.753906 C -6.726562 -5.714844 -6.761719 -5.714844 -6.808594 -5.734375 C -6.886719 -5.761719 -6.902344 -5.859375 -6.84375 -6.015625 C -6.832031 -6.046875 -6.792969 -6.113281 -6.75 -6.222656 C -6.691406 -6.316406 -6.636719 -6.425781 -6.574219 -6.527344 C -6.507812 -6.632812 -6.4375 -6.71875 -6.371094 -6.796875 C -6.289062 -6.871094 -6.21875 -6.894531 -6.171875 -6.878906 C -6.082031 -6.84375 -6.035156 -6.800781 -6.011719 -6.765625 C -5.984375 -6.703125 -5.921875 -6.65625 -5.839844 -6.609375 C -5.691406 -6.902344 -5.519531 -7.15625 -5.320312 -7.375 C -5.113281 -7.582031 -4.894531 -7.753906 -4.65625 -7.882812 C -4.410156 -7.992188 -4.15625 -8.050781 -3.890625 -8.082031 C -3.621094 -8.082031 -3.339844 -8.039062 -3.074219 -7.941406 C -2.78125 -7.832031 -2.554688 -7.679688 -2.363281 -7.507812 C -2.171875 -7.304688 -2.019531 -7.097656 -1.929688 -6.859375 C -1.816406 -6.609375 -1.769531 -6.335938 -1.757812 -6.050781 C -1.746094 -5.75 -1.78125 -5.445312 -1.871094 -5.144531 L -0.140625 -4.496094 C -0.0546875 -4.796875 0.0273438 -5.113281 0.0976562 -5.441406 C 0.179688 -5.757812 0.246094 -6.078125 0.320312 -6.410156 C 0.390625 -6.726562 0.457031 -7.046875 0.511719 -7.359375 C 0.574219 -7.660156 0.628906 -7.945312 0.671875 -8.222656 L -4.894531 -10.3125 C -5.074219 -10.382812 -5.25 -10.359375 -5.421875 -10.242188 C -5.59375 -10.128906 -5.78125 -9.929688 -6.003906 -9.679688 C -6.03125 -9.640625 -6.070312 -9.605469 -6.101562 -9.589844 C -6.136719 -9.566406 -6.175781 -9.566406 -6.21875 -9.582031 C -6.308594 -9.617188 -6.320312 -9.722656 -6.25 -9.914062 C -6.226562 -9.96875 -6.164062 -10.101562 -6.078125 -10.296875 C -5.980469 -10.492188 -5.871094 -10.679688 -5.75 -10.867188 C -5.664062 -10.988281 -5.585938 -11.097656 -5.503906 -11.183594 C -5.414062 -11.25 -5.324219 -11.28125 -5.246094 -11.253906 C -5.132812 -11.210938 -5.042969 -11.148438 -4.972656 -11.097656 C -4.898438 -11.019531 -4.789062 -10.964844 -4.644531 -10.910156 Z M -4.621094 -3.785156 C -4.351562 -3.683594 -4.109375 -3.644531 -3.882812 -3.671875 C -3.644531 -3.6875 -3.441406 -3.75 -3.261719 -3.863281 C -3.066406 -3.96875 -2.910156 -4.113281 -2.769531 -4.316406 C -2.625 -4.496094 -2.507812 -4.707031 -2.414062 -4.953125 C -2.324219 -5.199219 -2.273438 -5.4375 -2.253906 -5.6875 C -2.234375 -5.910156 -2.253906 -6.132812 -2.328125 -6.339844 C -2.394531 -6.546875 -2.503906 -6.726562 -2.671875 -6.894531 C -2.828125 -7.054688 -3.035156 -7.183594 -3.304688 -7.285156 C -3.550781 -7.378906 -3.792969 -7.417969 -4.03125 -7.402344 C -4.253906 -7.386719 -4.46875 -7.324219 -4.664062 -7.21875 C -4.84375 -7.109375 -5.015625 -6.953125 -5.160156 -6.777344 C -5.3125 -6.578125 -5.429688 -6.367188 -5.523438 -6.121094 C -5.617188 -5.875 -5.667969 -5.636719 -5.675781 -5.410156 C -5.691406 -5.160156 -5.65625 -4.941406 -5.59375 -4.738281 C -5.519531 -4.53125 -5.394531 -4.34375 -5.238281 -4.183594 C -5.074219 -4.007812 -4.867188 -3.878906 -4.621094 -3.785156 Z M -4.621094 -3.785156 "/></g></g></g><g fill="#ffffff" fill-opacity="1"><g transform="translate(23.084589, 67.583138)"><g/></g></g><g fill="#ffffff" fill-opacity="1"><g transform="translate(27.670027, 59.305243)"><g><path d="M 1.109375 -9.765625 L 1.417969 -10.195312 C 1.488281 -10.292969 1.535156 -10.378906 1.554688 -10.464844 C 1.574219 -10.539062 1.582031 -10.609375 1.578125 -10.683594 C 1.578125 -10.746094 1.582031 -10.8125 1.582031 -10.875 C 1.589844 -10.925781 1.605469 -10.988281 1.648438 -11.046875 C 1.714844 -11.144531 1.796875 -11.234375 1.871094 -11.34375 C 1.960938 -11.425781 2.058594 -11.519531 2.171875 -11.617188 C 2.246094 -11.679688 2.320312 -11.699219 2.386719 -11.710938 C 2.46875 -11.699219 2.53125 -11.683594 2.578125 -11.648438 C 2.726562 -11.542969 2.722656 -11.398438 2.582031 -11.203125 L 1.402344 -9.558594 L 4.253906 -7.507812 L 4.839844 -7.089844 C 5.066406 -6.910156 5.28125 -6.742188 5.484375 -6.570312 C 5.683594 -6.394531 5.839844 -6.222656 5.96875 -6.074219 C 6.082031 -5.902344 6.109375 -5.777344 6.046875 -5.691406 C 5.964844 -5.574219 5.53125 -5.796875 4.761719 -6.347656 L 2.191406 -8.191406 C 2.078125 -7.742188 1.925781 -7.265625 1.746094 -6.769531 C 1.582031 -6.253906 1.398438 -5.769531 1.199219 -5.289062 C 1.003906 -4.8125 0.804688 -4.367188 0.609375 -3.972656 C 0.414062 -3.554688 0.226562 -3.230469 0.0585938 -2.996094 C -0.136719 -2.726562 -0.347656 -2.578125 -0.585938 -2.574219 C -0.8125 -2.546875 -1.078125 -2.648438 -1.371094 -2.859375 L -4.214844 -4.898438 C -4.378906 -5.015625 -4.546875 -5.050781 -4.71875 -4.996094 C -4.886719 -4.925781 -5.117188 -4.792969 -5.386719 -4.601562 C -5.421875 -4.570312 -5.46875 -4.546875 -5.503906 -4.539062 C -5.542969 -4.527344 -5.578125 -4.535156 -5.617188 -4.566406 C -5.695312 -4.621094 -5.679688 -4.726562 -5.5625 -4.890625 L -5.464844 -5.027344 C -5.410156 -5.078125 -5.351562 -5.140625 -5.289062 -5.230469 C -5.222656 -5.300781 -5.152344 -5.378906 -5.070312 -5.46875 C -4.988281 -5.542969 -4.917969 -5.625 -4.828125 -5.707031 C -4.683594 -5.828125 -4.578125 -5.914062 -4.496094 -5.941406 C -4.421875 -5.964844 -4.351562 -5.957031 -4.296875 -5.914062 L -4.226562 -5.867188 C -4.203125 -5.835938 -4.183594 -5.804688 -4.152344 -5.785156 C -4.113281 -5.738281 -4.0625 -5.703125 -4.023438 -5.675781 C -3.972656 -5.625 -3.914062 -5.582031 -3.847656 -5.535156 L -0.894531 -3.417969 C -0.683594 -3.261719 -0.515625 -3.289062 -0.367188 -3.496094 C -0.128906 -3.824219 0.109375 -4.199219 0.324219 -4.605469 C 0.546875 -4.992188 0.753906 -5.40625 0.941406 -5.832031 C 1.136719 -6.25 1.308594 -6.671875 1.476562 -7.113281 C 1.636719 -7.542969 1.792969 -7.964844 1.929688 -8.382812 L -2.042969 -11.234375 C -2.199219 -11.34375 -2.375 -11.367188 -2.570312 -11.300781 C -2.765625 -11.234375 -3 -11.09375 -3.277344 -10.910156 C -3.316406 -10.878906 -3.363281 -10.851562 -3.394531 -10.847656 C -3.4375 -10.832031 -3.472656 -10.84375 -3.511719 -10.871094 C -3.589844 -10.925781 -3.574219 -11.03125 -3.453125 -11.199219 C -3.417969 -11.246094 -3.324219 -11.355469 -3.1875 -11.523438 C -3.042969 -11.6875 -2.890625 -11.839844 -2.722656 -11.988281 C -2.613281 -12.082031 -2.503906 -12.167969 -2.402344 -12.230469 C -2.296875 -12.273438 -2.207031 -12.277344 -2.136719 -12.230469 C -2.039062 -12.160156 -1.964844 -12.078125 -1.914062 -12.007812 C -1.863281 -11.914062 -1.773438 -11.835938 -1.644531 -11.746094 Z M 1.109375 -9.765625 "/></g></g></g><g fill="#ffffff" fill-opacity="1"><g transform="translate(38.322708, 45.606353)"><g><path d="M 1.195312 -0.574219 C 1.144531 -0.503906 1.085938 -0.441406 1.019531 -0.40625 C 0.9375 -0.371094 0.851562 -0.351562 0.785156 -0.347656 C 0.691406 -0.335938 0.617188 -0.34375 0.546875 -0.375 C 0.453125 -0.398438 0.390625 -0.4375 0.324219 -0.503906 C 0.191406 -0.625 0.117188 -0.757812 0.113281 -0.929688 C 0.101562 -1.070312 0.15625 -1.21875 0.285156 -1.359375 C 0.433594 -1.515625 0.617188 -1.589844 0.8125 -1.570312 C 1.015625 -1.542969 1.214844 -1.4375 1.417969 -1.25 C 1.714844 -0.972656 1.917969 -0.664062 2.042969 -0.320312 C 2.152344 0.0117188 2.15625 0.378906 2.050781 0.753906 C 2.035156 0.773438 2.035156 0.789062 2.035156 0.804688 C 2.019531 0.824219 1.996094 0.832031 1.96875 0.824219 C 1.925781 0.816406 1.917969 0.792969 1.933594 0.742188 C 1.945312 0.621094 1.941406 0.488281 1.9375 0.351562 C 1.914062 0.214844 1.886719 0.0898438 1.847656 -0.0429688 C 1.792969 -0.160156 1.738281 -0.277344 1.675781 -0.386719 C 1.601562 -0.484375 1.523438 -0.558594 1.453125 -0.625 C 1.386719 -0.671875 1.34375 -0.699219 1.316406 -0.6875 C 1.273438 -0.679688 1.226562 -0.644531 1.195312 -0.574219 Z M 1.195312 -0.574219 "/></g></g></g><g fill="#ffffff" fill-opacity="1"><g transform="translate(44.749429, 39.137871)"><g/></g></g><g fill="#ffffff" fill-opacity="1"><g transform="translate(51.912759, 32.954654)"><g><path d="M 3.609375 -10.914062 C 3.675781 -10.769531 3.769531 -10.589844 3.875 -10.371094 C 3.984375 -10.125 4.109375 -9.875 4.238281 -9.601562 C 4.371094 -9.316406 4.496094 -9.023438 4.632812 -8.738281 C 4.761719 -8.421875 4.886719 -8.128906 5.007812 -7.863281 C 5.125 -7.566406 5.226562 -7.304688 5.324219 -7.078125 C 5.40625 -6.832031 5.460938 -6.636719 5.503906 -6.492188 C 5.523438 -6.375 5.527344 -6.304688 5.523438 -6.273438 C 5.503906 -6.214844 5.480469 -6.1875 5.441406 -6.175781 C 5.421875 -6.164062 5.390625 -6.167969 5.351562 -6.203125 C 5.3125 -6.21875 5.273438 -6.277344 5.238281 -6.371094 C 5.125 -6.582031 4.957031 -6.890625 4.757812 -7.273438 C 4.542969 -7.652344 4.320312 -8.050781 4.078125 -8.464844 C 3.832031 -8.875 3.597656 -9.285156 3.355469 -9.683594 C 3.121094 -10.074219 2.921875 -10.390625 2.746094 -10.648438 C 2.667969 -10.59375 2.589844 -10.554688 2.511719 -10.503906 L 2.265625 -10.335938 C 2.007812 -10.160156 1.714844 -9.949219 1.386719 -9.726562 C 1.058594 -9.488281 0.746094 -9.261719 0.4375 -9.054688 C 0.132812 -8.820312 -0.136719 -8.621094 -0.375 -8.460938 C -0.617188 -8.265625 -0.792969 -8.132812 -0.882812 -8.058594 C -0.949219 -7.984375 -1.003906 -7.933594 -1.046875 -7.875 C -1.097656 -7.796875 -1.136719 -7.726562 -1.183594 -7.667969 C -1.234375 -7.574219 -1.300781 -7.5 -1.367188 -7.425781 C -1.425781 -7.34375 -1.515625 -7.28125 -1.640625 -7.253906 C -1.835938 -7.195312 -2.03125 -7.164062 -2.257812 -7.15625 C -2.46875 -7.128906 -2.625 -7.125 -2.726562 -7.144531 C -2.792969 -7.15625 -2.832031 -7.171875 -2.851562 -7.203125 C -2.898438 -7.273438 -2.859375 -7.339844 -2.726562 -7.402344 C -2.558594 -7.472656 -2.386719 -7.5625 -2.207031 -7.683594 C -2.042969 -7.78125 -1.882812 -7.886719 -1.734375 -7.988281 L -1.355469 -8.242188 C -1.179688 -8.363281 -0.960938 -8.511719 -0.71875 -8.691406 C -0.480469 -8.851562 -0.234375 -9.019531 0.0390625 -9.21875 C 0.304688 -9.398438 0.574219 -9.582031 0.824219 -9.765625 C 1.082031 -9.941406 1.316406 -10.113281 1.527344 -10.269531 C 1.746094 -10.417969 1.90625 -10.542969 2.03125 -10.636719 C 2.117188 -10.699219 2.191406 -10.761719 2.238281 -10.824219 C 2.28125 -10.867188 2.316406 -10.917969 2.34375 -10.964844 C 2.367188 -10.996094 2.390625 -11.042969 2.417969 -11.089844 C 2.441406 -11.121094 2.464844 -11.148438 2.503906 -11.175781 C 2.582031 -11.230469 2.667969 -11.273438 2.769531 -11.34375 C 2.863281 -11.390625 2.960938 -11.441406 3.046875 -11.488281 C 3.140625 -11.519531 3.222656 -11.546875 3.296875 -11.570312 C 3.371094 -11.5625 3.429688 -11.542969 3.457031 -11.503906 C 3.484375 -11.464844 3.484375 -11.4375 3.5 -11.417969 C 3.492188 -11.382812 3.496094 -11.355469 3.5 -11.332031 C 3.507812 -11.277344 3.519531 -11.214844 3.527344 -11.160156 C 3.539062 -11.082031 3.566406 -11 3.609375 -10.914062 Z M 8.195312 -6.40625 C 7.976562 -6.257812 7.734375 -6.105469 7.449219 -5.929688 L 6.546875 -5.316406 C 6.128906 -5.035156 5.699219 -4.730469 5.242188 -4.417969 C 4.792969 -4.101562 4.351562 -3.789062 3.9375 -3.503906 C 3.523438 -3.195312 3.144531 -2.925781 2.8125 -2.6875 C 2.476562 -2.429688 2.222656 -2.230469 2.050781 -2.082031 C 1.878906 -1.910156 1.753906 -1.769531 1.664062 -1.648438 C 1.589844 -1.539062 1.511719 -1.445312 1.425781 -1.355469 C 1.335938 -1.253906 1.222656 -1.1875 1.070312 -1.15625 C 0.8125 -1.085938 0.582031 -1.042969 0.375 -1.050781 C 0.160156 -1.023438 0.015625 -1.023438 -0.0859375 -1.042969 C -0.152344 -1.039062 -0.199219 -1.066406 -0.226562 -1.105469 C -0.28125 -1.183594 -0.238281 -1.269531 -0.0664062 -1.359375 C 0.140625 -1.457031 0.375 -1.585938 0.617188 -1.738281 C 0.859375 -1.871094 1.066406 -1.996094 1.246094 -2.117188 L 1.742188 -2.453125 C 1.980469 -2.613281 2.265625 -2.808594 2.578125 -3.035156 C 2.882812 -3.242188 3.222656 -3.46875 3.574219 -3.722656 C 3.929688 -3.964844 4.265625 -4.191406 4.597656 -4.429688 C 4.914062 -4.648438 5.207031 -4.859375 5.476562 -5.054688 C 5.734375 -5.230469 5.9375 -5.382812 6.0625 -5.496094 C 6.289062 -5.675781 6.441406 -5.8125 6.523438 -5.925781 C 6.609375 -6.011719 6.679688 -6.101562 6.730469 -6.195312 C 6.769531 -6.25 6.8125 -6.292969 6.835938 -6.339844 C 6.859375 -6.371094 6.894531 -6.40625 6.941406 -6.441406 C 7.003906 -6.480469 7.078125 -6.515625 7.160156 -6.570312 C 7.246094 -6.613281 7.332031 -6.660156 7.429688 -6.726562 C 7.523438 -6.761719 7.617188 -6.808594 7.722656 -6.867188 C 7.816406 -6.902344 7.902344 -6.945312 7.984375 -6.972656 C 8.1875 -7.039062 8.332031 -7.019531 8.40625 -6.910156 C 8.460938 -6.828125 8.46875 -6.75 8.4375 -6.671875 C 8.40625 -6.5625 8.324219 -6.476562 8.195312 -6.40625 Z M 8.195312 -6.40625 "/></g></g></g><g fill="#ffffff" fill-opacity="1"><g transform="translate(66.491866, 23.694592)"><g><path d="M -0.00390625 -4.273438 C -0.0820312 -4.449219 -0.214844 -4.5625 -0.382812 -4.617188 C -0.5625 -4.667969 -0.828125 -4.664062 -1.175781 -4.625 C -1.296875 -4.597656 -1.359375 -4.621094 -1.398438 -4.707031 C -1.4375 -4.796875 -1.371094 -4.878906 -1.183594 -4.964844 L -1.03125 -5.03125 C -0.960938 -5.050781 -0.878906 -5.074219 -0.78125 -5.121094 C -0.691406 -5.148438 -0.585938 -5.183594 -0.472656 -5.21875 C -0.363281 -5.242188 -0.261719 -5.277344 -0.144531 -5.304688 L -0.105469 -5.308594 L 2.789062 -6.699219 L 1.824219 -8.828125 L 1.332031 -8.605469 C 1.140625 -8.507812 0.960938 -8.410156 0.765625 -8.320312 C 0.578125 -8.210938 0.386719 -8.109375 0.21875 -8.019531 C 0.03125 -7.910156 -0.128906 -7.824219 -0.253906 -7.753906 C -0.332031 -7.691406 -0.410156 -7.632812 -0.464844 -7.582031 C -0.527344 -7.511719 -0.578125 -7.449219 -0.617188 -7.394531 C -0.660156 -7.320312 -0.726562 -7.261719 -0.792969 -7.207031 C -0.867188 -7.132812 -0.953125 -7.09375 -1.058594 -7.085938 C -1.277344 -7.054688 -1.488281 -7.050781 -1.707031 -7.070312 C -1.921875 -7.078125 -2.070312 -7.089844 -2.140625 -7.125 C -2.164062 -7.125 -2.1875 -7.140625 -2.210938 -7.167969 C -2.242188 -7.179688 -2.269531 -7.207031 -2.289062 -7.253906 C -2.320312 -7.316406 -2.269531 -7.378906 -2.128906 -7.417969 C -1.949219 -7.460938 -1.765625 -7.515625 -1.566406 -7.605469 C -1.386719 -7.675781 -1.214844 -7.753906 -1.050781 -7.828125 C -0.765625 -7.957031 -0.429688 -8.109375 -0.046875 -8.308594 C 0.347656 -8.488281 0.71875 -8.683594 1.082031 -8.875 C 1.195312 -8.9375 1.285156 -9.003906 1.351562 -9.0625 C 1.410156 -9.101562 1.46875 -9.152344 1.523438 -9.207031 C 1.5625 -9.234375 1.601562 -9.265625 1.632812 -9.308594 C 1.660156 -9.335938 1.699219 -9.363281 1.753906 -9.390625 C 1.820312 -9.417969 1.914062 -9.449219 2 -9.488281 C 2.09375 -9.515625 2.171875 -9.539062 2.253906 -9.5625 C 2.332031 -9.570312 2.398438 -9.5625 2.464844 -9.566406 C 2.527344 -9.542969 2.566406 -9.519531 2.585938 -9.476562 C 2.609375 -9.421875 2.613281 -9.382812 2.621094 -9.363281 L 2.621094 -9.28125 C 2.613281 -9.210938 2.621094 -9.136719 2.628906 -9.0625 C 2.628906 -8.96875 2.652344 -8.863281 2.691406 -8.746094 L 3.234375 -6.914062 L 3.332031 -6.960938 C 3.503906 -7.039062 3.632812 -7.015625 3.691406 -6.886719 C 3.734375 -6.800781 3.726562 -6.730469 3.679688 -6.683594 C 3.628906 -6.621094 3.546875 -6.570312 3.460938 -6.53125 L 0.421875 -5.101562 L 1.339844 -3.082031 C 1.449219 -2.839844 1.605469 -2.78125 1.835938 -2.886719 C 2.285156 -3.089844 2.730469 -3.320312 3.160156 -3.59375 C 3.582031 -3.847656 3.996094 -4.128906 4.40625 -4.445312 C 4.800781 -4.730469 5.1875 -5.039062 5.554688 -5.363281 C 5.914062 -5.671875 6.265625 -5.972656 6.597656 -6.28125 L 4.445312 -11.03125 C 4.367188 -11.207031 4.226562 -11.3125 4.023438 -11.351562 C 3.820312 -11.390625 3.546875 -11.386719 3.214844 -11.367188 C 3.164062 -11.359375 3.113281 -11.359375 3.078125 -11.371094 C 3.039062 -11.378906 3.011719 -11.40625 2.992188 -11.449219 C 2.953125 -11.539062 3.019531 -11.621094 3.203125 -11.707031 C 3.257812 -11.730469 3.394531 -11.777344 3.597656 -11.855469 C 3.804688 -11.925781 4.015625 -11.980469 4.230469 -12.027344 C 4.375 -12.050781 4.511719 -12.074219 4.628906 -12.074219 C 4.742188 -12.058594 4.824219 -12.019531 4.859375 -11.941406 C 4.910156 -11.832031 4.933594 -11.726562 4.945312 -11.640625 C 4.941406 -11.53125 4.980469 -11.417969 5.042969 -11.277344 L 8.042969 -4.664062 L 8.339844 -4.007812 C 8.449219 -3.742188 8.550781 -3.484375 8.640625 -3.234375 C 8.726562 -2.984375 8.777344 -2.757812 8.8125 -2.5625 C 8.828125 -2.359375 8.789062 -2.238281 8.691406 -2.191406 C 8.558594 -2.132812 8.296875 -2.539062 7.90625 -3.402344 L 6.738281 -5.976562 C 6.414062 -5.648438 6.046875 -5.296875 5.636719 -4.925781 C 5.214844 -4.550781 4.785156 -4.183594 4.359375 -3.847656 C 3.917969 -3.488281 3.5 -3.167969 3.082031 -2.898438 C 2.664062 -2.601562 2.285156 -2.390625 1.957031 -2.242188 C 1.652344 -2.105469 1.398438 -2.082031 1.1875 -2.195312 C 0.976562 -2.285156 0.796875 -2.507812 0.648438 -2.835938 Z M -0.00390625 -4.273438 "/></g></g></g><g fill="#ffffff" fill-opacity="1"><g transform="translate(82.424164, 17.026708)"><g><path d="M 9.878906 -3.195312 C 9.625 -3.128906 9.34375 -3.066406 9.015625 -2.996094 L 7.960938 -2.71875 C 7.472656 -2.589844 6.964844 -2.445312 6.433594 -2.304688 C 5.902344 -2.152344 5.394531 -2.007812 4.910156 -1.882812 C 4.417969 -1.726562 3.96875 -1.597656 3.574219 -1.480469 C 3.175781 -1.351562 2.871094 -1.246094 2.65625 -1.167969 C 2.4375 -1.058594 2.273438 -0.96875 2.148438 -0.886719 C 2.042969 -0.808594 1.9375 -0.742188 1.828125 -0.6875 C 1.707031 -0.621094 1.578125 -0.597656 1.421875 -0.621094 C 1.160156 -0.636719 0.925781 -0.675781 0.734375 -0.75 C 0.523438 -0.792969 0.386719 -0.84375 0.296875 -0.894531 C 0.230469 -0.914062 0.195312 -0.957031 0.183594 -1.003906 C 0.15625 -1.105469 0.226562 -1.175781 0.417969 -1.199219 C 0.644531 -1.222656 0.90625 -1.265625 1.1875 -1.328125 C 1.460938 -1.375 1.695312 -1.421875 1.90625 -1.476562 L 2.867188 -1.730469 C 3.097656 -1.789062 3.355469 -1.859375 3.628906 -1.941406 L 4.476562 -2.164062 L 3.835938 -4.609375 C 3.785156 -4.796875 3.667969 -4.914062 3.5 -4.992188 C 3.3125 -5.042969 3.050781 -5.085938 2.699219 -5.117188 C 2.648438 -5.117188 2.597656 -5.128906 2.566406 -5.144531 C 2.527344 -5.160156 2.503906 -5.191406 2.492188 -5.238281 C 2.46875 -5.332031 2.550781 -5.402344 2.746094 -5.453125 C 2.804688 -5.46875 2.945312 -5.492188 3.15625 -5.535156 C 3.371094 -5.566406 3.578125 -5.585938 3.800781 -5.59375 C 3.984375 -5.589844 4.121094 -5.589844 4.203125 -5.5625 C 4.273438 -5.53125 4.324219 -5.480469 4.34375 -5.414062 L 4.363281 -5.332031 C 4.359375 -5.292969 4.359375 -5.253906 4.367188 -5.222656 C 4.371094 -5.160156 4.386719 -5.101562 4.398438 -5.054688 C 4.40625 -4.984375 4.421875 -4.914062 4.445312 -4.832031 C 4.554688 -4.414062 4.652344 -3.996094 4.761719 -3.578125 C 4.859375 -3.15625 4.96875 -2.738281 5.074219 -2.332031 C 5.332031 -2.402344 5.597656 -2.46875 5.847656 -2.550781 C 6.105469 -2.617188 6.335938 -2.675781 6.566406 -2.75 C 6.773438 -2.804688 6.96875 -2.867188 7.148438 -2.925781 C 7.3125 -2.96875 7.449219 -3.019531 7.5625 -3.058594 C 7.835938 -3.144531 8.027344 -3.21875 8.140625 -3.296875 C 8.253906 -3.351562 8.347656 -3.414062 8.429688 -3.484375 C 8.480469 -3.523438 8.535156 -3.550781 8.574219 -3.585938 C 8.605469 -3.605469 8.648438 -3.628906 8.707031 -3.644531 C 8.777344 -3.664062 8.863281 -3.671875 8.953125 -3.699219 C 9.050781 -3.710938 9.144531 -3.722656 9.261719 -3.753906 C 9.359375 -3.753906 9.46875 -3.769531 9.585938 -3.789062 C 9.6875 -3.789062 9.78125 -3.804688 9.871094 -3.800781 C 10.082031 -3.792969 10.210938 -3.730469 10.242188 -3.601562 C 10.269531 -3.507812 10.25 -3.429688 10.195312 -3.367188 C 10.132812 -3.273438 10.019531 -3.222656 9.878906 -3.195312 Z M 7.003906 -9.207031 C 7.019531 -9.050781 7.046875 -8.847656 7.074219 -8.605469 C 7.09375 -8.339844 7.128906 -8.0625 7.160156 -7.761719 C 7.191406 -7.449219 7.210938 -7.132812 7.246094 -6.816406 C 7.261719 -6.476562 7.28125 -6.15625 7.308594 -5.867188 C 7.316406 -5.546875 7.328125 -5.265625 7.34375 -5.023438 C 7.339844 -4.761719 7.328125 -4.558594 7.320312 -4.410156 C 7.300781 -4.292969 7.28125 -4.226562 7.261719 -4.195312 C 7.226562 -4.148438 7.195312 -4.128906 7.15625 -4.128906 C 7.132812 -4.125 7.105469 -4.140625 7.082031 -4.183594 C 7.046875 -4.214844 7.03125 -4.28125 7.027344 -4.382812 C 6.992188 -4.621094 6.9375 -4.964844 6.875 -5.394531 C 6.800781 -5.820312 6.71875 -6.269531 6.632812 -6.742188 C 6.535156 -7.214844 6.449219 -7.675781 6.355469 -8.132812 C 6.261719 -8.578125 6.179688 -8.941406 6.101562 -9.242188 C 6.007812 -9.21875 5.925781 -9.210938 5.832031 -9.183594 L 5.542969 -9.109375 C 5.242188 -9.03125 4.894531 -8.925781 4.511719 -8.828125 C 4.121094 -8.710938 3.753906 -8.601562 3.394531 -8.507812 C 3.03125 -8.390625 2.707031 -8.292969 2.429688 -8.21875 C 2.132812 -8.117188 1.929688 -8.050781 1.816406 -8.007812 C 1.730469 -7.960938 1.664062 -7.929688 1.597656 -7.890625 C 1.527344 -7.832031 1.46875 -7.78125 1.402344 -7.738281 C 1.324219 -7.667969 1.234375 -7.621094 1.148438 -7.574219 C 1.066406 -7.515625 0.960938 -7.488281 0.832031 -7.503906 C 0.632812 -7.511719 0.4375 -7.546875 0.222656 -7.617188 C 0.0117188 -7.660156 -0.136719 -7.707031 -0.226562 -7.757812 C -0.285156 -7.792969 -0.316406 -7.820312 -0.324219 -7.855469 C -0.347656 -7.9375 -0.285156 -7.992188 -0.140625 -8.003906 C 0.0429688 -8.015625 0.234375 -8.039062 0.441406 -8.09375 C 0.632812 -8.132812 0.816406 -8.179688 0.992188 -8.226562 L 1.429688 -8.339844 C 1.640625 -8.394531 1.894531 -8.464844 2.183594 -8.550781 C 2.460938 -8.625 2.75 -8.699219 3.070312 -8.796875 C 3.382812 -8.878906 3.699219 -8.960938 3.996094 -9.050781 C 4.296875 -9.128906 4.574219 -9.214844 4.824219 -9.292969 C 5.078125 -9.359375 5.273438 -9.421875 5.421875 -9.472656 C 5.527344 -9.5 5.617188 -9.539062 5.679688 -9.578125 C 5.734375 -9.605469 5.785156 -9.644531 5.824219 -9.679688 C 5.859375 -9.699219 5.898438 -9.734375 5.9375 -9.769531 C 5.96875 -9.792969 6 -9.8125 6.046875 -9.824219 C 6.140625 -9.847656 6.238281 -9.859375 6.351562 -9.890625 C 6.460938 -9.90625 6.566406 -9.921875 6.664062 -9.9375 C 6.761719 -9.9375 6.847656 -9.933594 6.925781 -9.929688 C 6.996094 -9.898438 7.042969 -9.863281 7.054688 -9.816406 C 7.066406 -9.769531 7.0625 -9.742188 7.066406 -9.71875 C 7.050781 -9.691406 7.042969 -9.664062 7.039062 -9.636719 C 7.027344 -9.585938 7.019531 -9.519531 7.007812 -9.46875 C 6.992188 -9.390625 6.988281 -9.304688 7.003906 -9.207031 Z M 7.003906 -9.207031 "/></g></g></g><g fill="#ffffff" fill-opacity="1"><g transform="translate(99.361494, 13.270144)"><g/></g></g><g fill="#ffffff" fill-opacity="1"><g transform="translate(108.767157, 12.233257)"><g><path d="M 4.84375 -7.15625 C 4.953125 -7.15625 5.035156 -7.167969 5.105469 -7.191406 C 5.167969 -7.203125 5.226562 -7.226562 5.289062 -7.261719 C 5.324219 -7.273438 5.371094 -7.296875 5.417969 -7.320312 C 5.46875 -7.332031 5.503906 -7.34375 5.539062 -7.34375 C 5.636719 -7.34375 5.730469 -7.332031 5.828125 -7.332031 L 6.101562 -7.292969 C 6.175781 -7.269531 6.246094 -7.242188 6.304688 -7.21875 C 6.355469 -7.171875 6.378906 -7.121094 6.375 -7.074219 C 6.375 -7.027344 6.351562 -6.980469 6.328125 -6.929688 C 6.292969 -6.871094 6.253906 -6.824219 6.21875 -6.789062 C 6.148438 -6.691406 6.097656 -6.632812 6.085938 -6.609375 C 5.722656 -5.796875 5.246094 -4.996094 4.667969 -4.222656 C 4.84375 -4.015625 5.035156 -3.824219 5.226562 -3.644531 C 5.417969 -3.449219 5.535156 -3.328125 5.609375 -3.28125 C 5.667969 -3.234375 5.738281 -3.195312 5.8125 -3.171875 C 5.882812 -3.136719 5.941406 -3.109375 6.015625 -3.085938 C 6.097656 -3.050781 6.179688 -3.011719 6.265625 -2.988281 C 6.335938 -2.953125 6.394531 -2.902344 6.46875 -2.832031 C 6.585938 -2.6875 6.691406 -2.507812 6.8125 -2.3125 C 6.90625 -2.109375 7 -1.917969 7.09375 -1.738281 C 7.117188 -1.6875 7.128906 -1.617188 7.152344 -1.53125 C 7.152344 -1.4375 7.140625 -1.375 7.09375 -1.339844 C 7.042969 -1.292969 6.984375 -1.269531 6.9375 -1.292969 C 6.875 -1.292969 6.816406 -1.320312 6.769531 -1.367188 C 6.710938 -1.402344 6.648438 -1.453125 6.601562 -1.511719 C 6.542969 -1.5625 6.496094 -1.609375 6.460938 -1.65625 L 4.4375 -3.914062 C 3.953125 -3.292969 3.421875 -2.722656 2.855469 -2.210938 C 2.277344 -1.6875 1.675781 -1.234375 1.046875 -0.855469 C 0.941406 -0.785156 0.867188 -0.785156 0.832031 -0.84375 C 0.785156 -0.894531 0.808594 -0.964844 0.90625 -1.046875 C 1.363281 -1.429688 1.824219 -1.84375 2.257812 -2.273438 C 2.679688 -2.703125 3.078125 -3.15625 3.453125 -3.644531 C 3.816406 -4.121094 4.15625 -4.621094 4.46875 -5.148438 C 4.761719 -5.671875 5.015625 -6.222656 5.238281 -6.808594 C 4.804688 -6.808594 4.398438 -6.800781 4 -6.792969 C 3.59375 -6.769531 3.269531 -6.75 3.019531 -6.726562 C 2.910156 -6.703125 2.828125 -6.679688 2.765625 -6.65625 C 2.695312 -6.621094 2.621094 -6.585938 2.5625 -6.5625 C 2.488281 -6.515625 2.417969 -6.492188 2.347656 -6.46875 C 2.261719 -6.445312 2.164062 -6.445312 2.058594 -6.492188 C 1.867188 -6.554688 1.6875 -6.640625 1.496094 -6.738281 C 1.304688 -6.824219 1.175781 -6.894531 1.101562 -6.96875 C 1.054688 -7.015625 1.03125 -7.050781 1.03125 -7.089844 C 1.03125 -7.113281 1.042969 -7.148438 1.082031 -7.171875 C 1.105469 -7.183594 1.152344 -7.183594 1.246094 -7.171875 C 1.425781 -7.132812 1.617188 -7.109375 1.835938 -7.105469 C 2.027344 -7.09375 2.21875 -7.089844 2.398438 -7.089844 C 2.53125 -7.089844 2.699219 -7.089844 2.902344 -7.097656 C 3.09375 -7.097656 3.296875 -7.097656 3.511719 -7.105469 C 3.726562 -7.105469 3.945312 -7.105469 4.183594 -7.125 C 4.410156 -7.125 4.628906 -7.136719 4.84375 -7.15625 Z M 9.257812 -0.859375 L 9.253906 -0.140625 C 9.238281 0.148438 9.226562 0.421875 9.199219 0.6875 C 9.175781 0.949219 9.125 1.175781 9.074219 1.367188 C 9 1.558594 8.917969 1.65625 8.808594 1.65625 C 8.664062 1.652344 8.597656 1.175781 8.605469 0.226562 L 8.660156 -8.148438 C 8.664062 -8.339844 8.578125 -8.496094 8.414062 -8.617188 C 8.246094 -8.738281 7.996094 -8.847656 7.683594 -8.972656 C 7.636719 -8.984375 7.589844 -9.007812 7.566406 -9.03125 C 7.527344 -9.054688 7.515625 -9.09375 7.519531 -9.140625 C 7.519531 -9.238281 7.613281 -9.285156 7.816406 -9.28125 C 7.878906 -9.28125 8.023438 -9.269531 8.238281 -9.253906 C 8.453125 -9.230469 8.667969 -9.191406 8.882812 -9.144531 C 9.027344 -9.105469 9.160156 -9.070312 9.265625 -9.019531 C 9.363281 -8.960938 9.421875 -8.886719 9.421875 -8.804688 C 9.421875 -8.683594 9.394531 -8.578125 9.371094 -8.492188 C 9.324219 -8.398438 9.308594 -8.277344 9.308594 -8.121094 Z M 9.257812 -0.859375 "/></g></g></g><g fill="#ffffff" fill-opacity="1"><g transform="translate(126.027071, 12.861385)"><g><path d="M 10.785156 -1.351562 C 10.523438 -1.398438 10.242188 -1.460938 9.914062 -1.53125 L 8.839844 -1.722656 L 7.683594 -1.929688 C 7.28125 -1.988281 6.878906 -2.046875 6.488281 -2.117188 L 6 0.621094 C 5.972656 0.785156 5.921875 0.984375 5.882812 1.21875 C 5.828125 1.441406 5.777344 1.664062 5.714844 1.871094 C 5.644531 2.078125 5.566406 2.246094 5.476562 2.390625 C 5.382812 2.519531 5.285156 2.585938 5.191406 2.570312 C 5.121094 2.554688 5.085938 2.464844 5.066406 2.304688 C 5.050781 2.128906 5.082031 1.808594 5.164062 1.359375 L 5.800781 -2.226562 C 5.277344 -2.296875 4.792969 -2.371094 4.367188 -2.433594 C 3.925781 -2.488281 3.589844 -2.523438 3.363281 -2.542969 C 3.117188 -2.535156 2.933594 -2.519531 2.78125 -2.5 C 2.65625 -2.472656 2.53125 -2.457031 2.410156 -2.457031 C 2.273438 -2.441406 2.144531 -2.476562 2.015625 -2.5625 C 1.78125 -2.6875 1.585938 -2.820312 1.441406 -2.96875 C 1.269531 -3.097656 1.167969 -3.199219 1.109375 -3.285156 C 1.054688 -3.328125 1.039062 -3.382812 1.050781 -3.429688 C 1.066406 -3.523438 1.15625 -3.554688 1.34375 -3.5 C 1.558594 -3.421875 1.816406 -3.351562 2.097656 -3.289062 C 2.363281 -3.21875 2.597656 -3.164062 2.808594 -3.125 L 3.292969 -3.039062 C 3.515625 -3 3.789062 -2.953125 4.097656 -2.910156 L 5.078125 -2.734375 C 5.429688 -2.671875 5.785156 -2.609375 6.140625 -2.558594 C 6.496094 -2.496094 6.835938 -2.433594 7.167969 -2.386719 C 7.488281 -2.328125 7.773438 -2.289062 8.035156 -2.257812 C 8.113281 -2.496094 8.214844 -2.785156 8.335938 -3.128906 C 8.441406 -3.449219 8.554688 -3.808594 8.683594 -4.1875 C 8.796875 -4.554688 8.902344 -4.925781 9.019531 -5.320312 C 9.121094 -5.691406 9.210938 -6.050781 9.296875 -6.390625 L 8.695312 -6.496094 C 8.398438 -6.550781 8.078125 -6.59375 7.722656 -6.65625 C 7.367188 -6.707031 7.023438 -6.757812 6.691406 -6.816406 C 6.359375 -6.851562 6.050781 -6.894531 5.789062 -6.941406 C 5.503906 -6.96875 5.300781 -6.992188 5.179688 -7 C 5.082031 -6.996094 5.007812 -6.996094 4.933594 -6.984375 C 4.84375 -6.964844 4.769531 -6.941406 4.691406 -6.929688 C 4.589844 -6.898438 4.492188 -6.894531 4.394531 -6.886719 C 4.292969 -6.867188 4.1875 -6.886719 4.078125 -6.953125 C 3.898438 -7.046875 3.734375 -7.160156 3.566406 -7.300781 C 3.394531 -7.429688 3.277344 -7.535156 3.21875 -7.617188 C 3.183594 -7.675781 3.164062 -7.714844 3.171875 -7.75 C 3.175781 -7.773438 3.191406 -7.804688 3.234375 -7.824219 C 3.257812 -7.832031 3.304688 -7.824219 3.398438 -7.792969 C 3.570312 -7.726562 3.753906 -7.667969 3.964844 -7.632812 C 4.152344 -7.585938 4.339844 -7.554688 4.519531 -7.519531 L 4.941406 -7.445312 C 5.144531 -7.410156 5.378906 -7.367188 5.640625 -7.332031 C 5.902344 -7.285156 6.171875 -7.238281 6.480469 -7.195312 C 6.765625 -7.144531 7.058594 -7.09375 7.34375 -7.054688 C 7.617188 -7.003906 7.878906 -6.972656 8.128906 -6.9375 C 8.363281 -6.898438 8.554688 -6.875 8.710938 -6.859375 C 8.816406 -6.839844 8.914062 -6.847656 8.988281 -6.859375 C 9.050781 -6.859375 9.113281 -6.871094 9.164062 -6.886719 C 9.203125 -6.894531 9.253906 -6.910156 9.304688 -6.921875 C 9.34375 -6.941406 9.382812 -6.945312 9.429688 -6.9375 C 9.523438 -6.921875 9.617188 -6.890625 9.734375 -6.871094 C 9.839844 -6.839844 9.941406 -6.808594 10.035156 -6.78125 C 10.125 -6.742188 10.203125 -6.703125 10.269531 -6.667969 C 10.320312 -6.609375 10.347656 -6.554688 10.339844 -6.507812 C 10.332031 -6.460938 10.3125 -6.425781 10.308594 -6.402344 C 10.277344 -6.371094 10.261719 -6.351562 10.246094 -6.328125 C 10.15625 -6.234375 10.085938 -6.113281 10.039062 -5.976562 C 9.941406 -5.714844 9.816406 -5.421875 9.683594 -5.078125 L 9.242188 -4.039062 L 8.792969 -3.023438 L 8.390625 -2.203125 C 8.425781 -2.199219 8.464844 -2.203125 8.511719 -2.195312 C 8.535156 -2.191406 8.570312 -2.183594 8.621094 -2.1875 C 8.90625 -2.160156 9.113281 -2.148438 9.25 -2.171875 C 9.371094 -2.175781 9.484375 -2.191406 9.585938 -2.222656 C 9.652344 -2.234375 9.710938 -2.238281 9.761719 -2.253906 C 9.800781 -2.257812 9.851562 -2.261719 9.910156 -2.25 C 9.980469 -2.238281 10.058594 -2.210938 10.15625 -2.195312 C 10.246094 -2.167969 10.339844 -2.136719 10.457031 -2.117188 C 10.546875 -2.078125 10.652344 -2.046875 10.765625 -2.011719 C 10.855469 -1.972656 10.949219 -1.945312 11.027344 -1.90625 C 11.21875 -1.808594 11.308594 -1.695312 11.285156 -1.566406 C 11.265625 -1.472656 11.21875 -1.410156 11.140625 -1.375 C 11.046875 -1.316406 10.921875 -1.316406 10.785156 -1.351562 Z M 10.785156 -1.351562 "/></g></g></g><g fill="#ffffff" fill-opacity="1"><g transform="translate(142.933634, 16.392217)"><g><path d="M 8.683594 -2.359375 C 8.796875 -2.320312 8.902344 -2.292969 9 -2.3125 C 9.074219 -2.308594 9.15625 -2.320312 9.238281 -2.339844 C 9.265625 -2.34375 9.316406 -2.347656 9.386719 -2.363281 C 9.441406 -2.367188 9.488281 -2.363281 9.558594 -2.339844 C 9.667969 -2.296875 9.777344 -2.246094 9.902344 -2.203125 C 10.007812 -2.140625 10.121094 -2.070312 10.246094 -1.988281 C 10.328125 -1.933594 10.367188 -1.867188 10.398438 -1.808594 C 10.40625 -1.726562 10.410156 -1.664062 10.386719 -1.605469 C 10.328125 -1.4375 10.1875 -1.398438 9.960938 -1.480469 L 5.015625 -3.210938 C 4.488281 -3.402344 4.328125 -3.777344 4.53125 -4.339844 L 4.714844 -4.847656 C 4.761719 -4.972656 4.746094 -5.105469 4.691406 -5.238281 C 4.621094 -5.367188 4.457031 -5.539062 4.175781 -5.757812 C 4.070312 -5.820312 4.042969 -5.878906 4.074219 -5.972656 C 4.109375 -6.0625 4.214844 -6.074219 4.40625 -6.003906 C 4.460938 -5.984375 4.570312 -5.933594 4.726562 -5.863281 C 4.875 -5.785156 5.046875 -5.695312 5.234375 -5.578125 C 5.34375 -5.5 5.429688 -5.417969 5.492188 -5.34375 L 9.535156 -3.976562 L 9.996094 -5.25 L 9.601562 -5.394531 C 9.414062 -5.449219 9.210938 -5.519531 9 -5.597656 C 8.769531 -5.667969 8.542969 -5.75 8.308594 -5.835938 C 8.054688 -5.914062 7.824219 -5.984375 7.609375 -6.058594 C 7.382812 -6.128906 7.1875 -6.1875 7.015625 -6.25 C 6.828125 -6.289062 6.675781 -6.332031 6.585938 -6.363281 C 6.5 -6.371094 6.429688 -6.382812 6.351562 -6.386719 C 6.261719 -6.378906 6.1875 -6.382812 6.121094 -6.378906 C 6.027344 -6.363281 5.949219 -6.367188 5.878906 -6.378906 C 5.792969 -6.382812 5.695312 -6.433594 5.597656 -6.519531 C 5.515625 -6.574219 5.441406 -6.652344 5.367188 -6.726562 C 5.28125 -6.808594 5.207031 -6.886719 5.148438 -6.972656 C 5.074219 -7.050781 5.011719 -7.125 4.960938 -7.191406 C 4.898438 -7.265625 4.855469 -7.320312 4.832031 -7.367188 C 4.800781 -7.417969 4.800781 -7.453125 4.816406 -7.5 C 4.84375 -7.566406 4.921875 -7.578125 5.050781 -7.503906 C 5.214844 -7.394531 5.386719 -7.308594 5.582031 -7.210938 C 5.765625 -7.121094 5.941406 -7.042969 6.121094 -6.980469 C 6.253906 -6.929688 6.480469 -6.847656 6.789062 -6.75 C 7.082031 -6.644531 7.386719 -6.535156 7.730469 -6.425781 C 8.058594 -6.308594 8.382812 -6.1875 8.703125 -6.085938 C 9.019531 -5.972656 9.269531 -5.894531 9.472656 -5.847656 C 9.597656 -5.816406 9.707031 -5.800781 9.796875 -5.792969 C 9.867188 -5.78125 9.941406 -5.78125 10.019531 -5.777344 C 10.066406 -5.773438 10.117188 -5.769531 10.171875 -5.773438 C 10.207031 -5.773438 10.257812 -5.769531 10.3125 -5.746094 C 10.382812 -5.722656 10.46875 -5.679688 10.570312 -5.644531 C 10.65625 -5.597656 10.730469 -5.558594 10.804688 -5.519531 C 10.863281 -5.472656 10.921875 -5.414062 10.96875 -5.371094 C 10.996094 -5.3125 11.019531 -5.265625 11.003906 -5.21875 C 10.980469 -5.164062 10.957031 -5.132812 10.949219 -5.109375 C 10.925781 -5.082031 10.90625 -5.0625 10.886719 -5.042969 C 10.84375 -4.996094 10.792969 -4.953125 10.746094 -4.890625 C 10.683594 -4.824219 10.621094 -4.730469 10.570312 -4.625 L 10.101562 -3.785156 L 10.183594 -3.757812 C 10.363281 -3.691406 10.441406 -3.589844 10.394531 -3.464844 C 10.363281 -3.375 10.308594 -3.328125 10.242188 -3.328125 C 10.164062 -3.316406 10.070312 -3.339844 9.980469 -3.371094 L 5.476562 -4.945312 L 5.148438 -4.03125 C 5.050781 -3.761719 5.128906 -3.589844 5.398438 -3.492188 Z M 6.738281 3.675781 C 6.863281 3.722656 6.972656 3.734375 7.0625 3.730469 L 7.300781 3.675781 C 7.417969 3.628906 7.53125 3.632812 7.621094 3.664062 C 7.734375 3.703125 7.847656 3.746094 7.964844 3.8125 C 8.078125 3.855469 8.191406 3.921875 8.3125 4.015625 C 8.394531 4.070312 8.4375 4.125 8.457031 4.207031 C 8.476562 4.265625 8.476562 4.328125 8.453125 4.398438 C 8.398438 4.554688 8.25 4.605469 8.027344 4.523438 L 3.183594 2.828125 C 2.65625 2.636719 2.496094 2.261719 2.699219 1.699219 L 2.867188 1.238281 C 2.914062 1.101562 2.894531 0.980469 2.839844 0.847656 C 2.761719 0.714844 2.589844 0.550781 2.328125 0.328125 C 2.289062 0.289062 2.253906 0.25 2.238281 0.222656 C 2.214844 0.1875 2.214844 0.148438 2.230469 0.101562 C 2.261719 0.0117188 2.371094 0 2.5625 0.0703125 C 2.617188 0.0898438 2.726562 0.140625 2.878906 0.210938 C 3.03125 0.289062 3.203125 0.375 3.386719 0.496094 C 3.53125 0.597656 3.625 0.683594 3.675781 0.761719 L 7.632812 2.113281 L 8.105469 0.804688 L 7.699219 0.660156 C 7.519531 0.59375 7.324219 0.539062 7.121094 0.464844 C 6.890625 0.394531 6.664062 0.3125 6.4375 0.230469 C 6.1875 0.152344 5.957031 0.0820312 5.753906 0.0117188 C 5.523438 -0.0585938 5.328125 -0.117188 5.160156 -0.179688 C 4.972656 -0.222656 4.820312 -0.261719 4.730469 -0.296875 C 4.632812 -0.304688 4.550781 -0.320312 4.472656 -0.324219 C 4.394531 -0.316406 4.3125 -0.304688 4.25 -0.304688 C 4.152344 -0.285156 4.078125 -0.289062 4.003906 -0.289062 C 3.914062 -0.296875 3.824219 -0.328125 3.738281 -0.410156 C 3.582031 -0.53125 3.441406 -0.671875 3.292969 -0.828125 C 3.132812 -0.984375 3.03125 -1.097656 2.988281 -1.191406 C 2.960938 -1.25 2.949219 -1.292969 2.960938 -1.328125 C 2.988281 -1.394531 3.066406 -1.40625 3.195312 -1.332031 C 3.351562 -1.238281 3.523438 -1.152344 3.726562 -1.078125 C 3.902344 -1 4.082031 -0.9375 4.25 -0.875 C 4.386719 -0.828125 4.601562 -0.75 4.898438 -0.65625 C 5.179688 -0.554688 5.484375 -0.445312 5.816406 -0.335938 C 6.132812 -0.222656 6.449219 -0.109375 6.765625 -0.0078125 C 7.058594 0.0976562 7.3125 0.175781 7.511719 0.222656 C 7.640625 0.257812 7.75 0.269531 7.835938 0.277344 C 7.910156 0.289062 7.972656 0.289062 8.050781 0.289062 C 8.097656 0.292969 8.148438 0.300781 8.199219 0.292969 C 8.238281 0.292969 8.289062 0.300781 8.355469 0.324219 C 8.421875 0.347656 8.507812 0.390625 8.597656 0.425781 C 8.679688 0.480469 8.757812 0.519531 8.828125 0.570312 C 8.886719 0.617188 8.929688 0.671875 8.980469 0.714844 C 9.007812 0.773438 9.015625 0.828125 8.996094 0.875 C 8.980469 0.917969 8.957031 0.949219 8.949219 0.972656 C 8.929688 0.988281 8.90625 1.019531 8.886719 1.039062 C 8.839844 1.097656 8.78125 1.152344 8.734375 1.210938 C 8.667969 1.289062 8.617188 1.359375 8.578125 1.4375 L 8.097656 2.269531 L 8.109375 2.273438 C 8.292969 2.339844 8.367188 2.441406 8.324219 2.566406 C 8.296875 2.644531 8.246094 2.679688 8.179688 2.679688 C 8.105469 2.679688 8.011719 2.65625 7.921875 2.625 L 6.90625 2.257812 C 6.53125 2.136719 6.152344 2.015625 5.78125 1.878906 C 5.394531 1.753906 5.023438 1.617188 4.660156 1.488281 C 4.285156 1.367188 3.933594 1.238281 3.621094 1.125 L 3.289062 2.039062 C 3.195312 2.296875 3.273438 2.480469 3.542969 2.578125 Z M 10.914062 0.328125 C 10.664062 0.238281 10.398438 0.128906 10.085938 0.00390625 L 9.0625 -0.363281 C 8.589844 -0.535156 8.089844 -0.703125 7.570312 -0.890625 C 7.046875 -1.066406 6.535156 -1.238281 6.0625 -1.40625 C 5.570312 -1.558594 5.125 -1.707031 4.738281 -1.835938 C 4.335938 -1.953125 4.023438 -2.039062 3.800781 -2.09375 C 3.558594 -2.132812 3.371094 -2.148438 3.222656 -2.152344 C 3.09375 -2.148438 2.96875 -2.152344 2.847656 -2.171875 C 2.710938 -2.183594 2.589844 -2.238281 2.476562 -2.34375 C 2.265625 -2.507812 2.097656 -2.671875 1.980469 -2.839844 C 1.832031 -2.996094 1.746094 -3.117188 1.703125 -3.207031 C 1.660156 -3.261719 1.652344 -3.316406 1.667969 -3.359375 C 1.703125 -3.449219 1.796875 -3.46875 1.96875 -3.378906 C 2.171875 -3.269531 2.410156 -3.15625 2.679688 -3.046875 C 2.929688 -2.933594 3.152344 -2.839844 3.355469 -2.765625 L 3.917969 -2.5625 C 4.1875 -2.464844 4.515625 -2.347656 4.878906 -2.230469 C 5.230469 -2.101562 5.613281 -1.964844 6.023438 -1.828125 C 6.429688 -1.683594 6.8125 -1.546875 7.199219 -1.417969 C 7.558594 -1.289062 7.902344 -1.175781 8.222656 -1.074219 C 8.515625 -0.96875 8.757812 -0.894531 8.921875 -0.859375 C 9.199219 -0.785156 9.402344 -0.738281 9.539062 -0.738281 C 9.660156 -0.722656 9.773438 -0.71875 9.882812 -0.730469 C 9.945312 -0.734375 10.007812 -0.726562 10.058594 -0.730469 C 10.097656 -0.730469 10.148438 -0.726562 10.203125 -0.703125 C 10.269531 -0.679688 10.347656 -0.640625 10.4375 -0.609375 C 10.523438 -0.566406 10.609375 -0.519531 10.722656 -0.480469 C 10.804688 -0.425781 10.902344 -0.378906 11.007812 -0.324219 C 11.089844 -0.269531 11.175781 -0.226562 11.25 -0.175781 C 11.417969 -0.0507812 11.488281 0.078125 11.445312 0.199219 C 11.410156 0.289062 11.351562 0.347656 11.269531 0.367188 C 11.164062 0.40625 11.046875 0.386719 10.914062 0.328125 Z M 10.914062 0.328125 "/></g></g></g><g fill="#ffffff" fill-opacity="1"><g transform="translate(159.019315, 22.891029)"><g/></g></g><g fill="#ffffff" fill-opacity="1"><g transform="translate(167.357423, 27.36532)"><g><path d="M 5.03125 -4.046875 C 5.195312 -4.28125 5.378906 -4.460938 5.613281 -4.589844 C 5.832031 -4.714844 6.074219 -4.792969 6.328125 -4.820312 C 6.582031 -4.847656 6.84375 -4.824219 7.121094 -4.761719 C 7.394531 -4.691406 7.671875 -4.585938 7.941406 -4.425781 L 7.960938 -4.457031 C 8.054688 -4.59375 8.042969 -4.765625 7.929688 -4.976562 C 7.914062 -5 7.898438 -5.039062 7.894531 -5.074219 C 7.859375 -5.109375 7.871094 -5.144531 7.898438 -5.1875 C 7.949219 -5.253906 8.042969 -5.246094 8.179688 -5.148438 C 8.210938 -5.128906 8.261719 -5.078125 8.359375 -5.007812 C 8.4375 -4.929688 8.527344 -4.851562 8.613281 -4.761719 C 8.695312 -4.671875 8.765625 -4.582031 8.824219 -4.496094 C 8.875 -4.402344 8.878906 -4.328125 8.851562 -4.289062 C 8.796875 -4.210938 8.742188 -4.171875 8.703125 -4.15625 C 8.636719 -4.144531 8.566406 -4.089844 8.503906 -4.019531 C 8.71875 -3.824219 8.902344 -3.609375 9.066406 -3.378906 C 9.210938 -3.148438 9.320312 -2.90625 9.382812 -2.660156 C 9.441406 -2.414062 9.445312 -2.164062 9.417969 -1.917969 C 9.359375 -1.667969 9.265625 -1.425781 9.109375 -1.199219 C 8.929688 -0.945312 8.714844 -0.761719 8.476562 -0.632812 C 8.214844 -0.507812 7.953125 -0.445312 7.679688 -0.429688 C 7.390625 -0.414062 7.097656 -0.453125 6.8125 -0.550781 C 6.503906 -0.652344 6.210938 -0.796875 5.933594 -0.988281 C 5.640625 -1.195312 5.402344 -1.417969 5.222656 -1.660156 C 5.015625 -1.910156 4.875 -2.167969 4.800781 -2.4375 C 4.699219 -2.714844 4.667969 -2.984375 4.714844 -3.257812 C 4.742188 -3.53125 4.851562 -3.789062 5.03125 -4.046875 Z M 8.214844 4.605469 L 7.804688 5.195312 C 7.628906 5.425781 7.460938 5.644531 7.289062 5.847656 C 7.121094 6.046875 6.949219 6.207031 6.800781 6.335938 C 6.632812 6.453125 6.507812 6.484375 6.421875 6.421875 C 6.300781 6.339844 6.519531 5.90625 7.058594 5.128906 L 9.171875 2.101562 C 8.597656 1.878906 8.007812 1.613281 7.410156 1.339844 C 6.789062 1.054688 6.1875 0.765625 5.582031 0.460938 L 4.417969 2.132812 C 4.320312 2.269531 4.195312 2.429688 4.0625 2.617188 C 3.917969 2.804688 3.777344 2.984375 3.632812 3.148438 C 3.480469 3.304688 3.339844 3.425781 3.199219 3.519531 C 3.058594 3.59375 2.941406 3.617188 2.863281 3.5625 C 2.804688 3.519531 2.8125 3.425781 2.863281 3.269531 C 2.917969 3.105469 3.085938 2.824219 3.347656 2.453125 L 4.949219 0.152344 C 4.761719 0.046875 4.578125 -0.0507812 4.40625 -0.140625 C 4.210938 -0.234375 4.03125 -0.332031 3.867188 -0.429688 C 3.753906 -0.480469 3.660156 -0.515625 3.589844 -0.535156 C 3.488281 -0.5625 3.410156 -0.574219 3.339844 -0.578125 C 3.234375 -0.59375 3.152344 -0.621094 3.078125 -0.644531 C 2.980469 -0.667969 2.898438 -0.738281 2.816406 -0.855469 C 2.667969 -1.0625 2.542969 -1.28125 2.433594 -1.5 C 2.320312 -1.714844 2.25 -1.863281 2.242188 -1.957031 L 2.21875 -2.03125 C 2.214844 -2.0625 2.226562 -2.085938 2.253906 -2.125 C 2.3125 -2.203125 2.40625 -2.191406 2.550781 -2.0625 C 2.707031 -1.910156 2.890625 -1.753906 3.085938 -1.617188 C 3.257812 -1.46875 3.4375 -1.34375 3.613281 -1.21875 C 3.75 -1.125 3.953125 -0.996094 4.222656 -0.839844 C 4.464844 -0.683594 4.753906 -0.511719 5.097656 -0.332031 C 5.414062 -0.15625 5.765625 0.03125 6.136719 0.234375 C 6.496094 0.425781 6.867188 0.628906 7.265625 0.816406 C 7.625 1.007812 7.992188 1.191406 8.371094 1.367188 C 8.71875 1.539062 9.046875 1.695312 9.363281 1.828125 L 11.851562 -1.742188 C 11.960938 -1.898438 11.984375 -2.074219 11.914062 -2.269531 C 11.84375 -2.460938 11.699219 -2.695312 11.511719 -2.972656 C 11.480469 -3.007812 11.453125 -3.054688 11.449219 -3.089844 C 11.433594 -3.128906 11.445312 -3.164062 11.472656 -3.203125 C 11.527344 -3.285156 11.632812 -3.269531 11.800781 -3.152344 C 11.847656 -3.117188 11.960938 -3.023438 12.128906 -2.890625 C 12.292969 -2.75 12.449219 -2.597656 12.597656 -2.433594 C 12.695312 -2.320312 12.785156 -2.214844 12.84375 -2.117188 C 12.890625 -2.011719 12.898438 -1.917969 12.847656 -1.847656 C 12.78125 -1.75 12.699219 -1.675781 12.632812 -1.621094 C 12.539062 -1.570312 12.457031 -1.480469 12.371094 -1.351562 Z M 8.519531 -1.613281 C 8.792969 -2.003906 8.867188 -2.40625 8.738281 -2.789062 C 8.601562 -3.175781 8.328125 -3.515625 7.902344 -3.808594 C 7.472656 -4.109375 7.046875 -4.257812 6.65625 -4.242188 C 6.242188 -4.238281 5.902344 -4.019531 5.628906 -3.628906 C 5.347656 -3.226562 5.269531 -2.839844 5.40625 -2.453125 C 5.527344 -2.078125 5.8125 -1.730469 6.242188 -1.429688 C 6.667969 -1.136719 7.078125 -0.992188 7.492188 -1 C 7.894531 -1.011719 8.238281 -1.207031 8.519531 -1.613281 Z M 8.519531 -1.613281 "/></g></g></g><g fill="#ffffff" fill-opacity="1"><g transform="translate(181.224854, 37.660616)"><g><path d="M 3.980469 -1.78125 C 4.164062 -1.96875 4.367188 -2.105469 4.605469 -2.191406 C 4.824219 -2.277344 5.0625 -2.296875 5.316406 -2.28125 C 5.550781 -2.25 5.800781 -2.175781 6.0625 -2.050781 C 6.300781 -1.914062 6.546875 -1.738281 6.785156 -1.503906 C 7.253906 -1.039062 7.511719 -0.550781 7.585938 -0.0429688 C 7.621094 0.464844 7.464844 0.914062 7.09375 1.292969 C 6.910156 1.480469 6.699219 1.605469 6.476562 1.695312 C 6.25 1.769531 6.011719 1.808594 5.773438 1.773438 C 5.527344 1.75 5.28125 1.675781 5.042969 1.542969 C 4.78125 1.417969 4.542969 1.230469 4.3125 1.003906 C 4.074219 0.769531 3.886719 0.53125 3.765625 0.28125 C 3.617188 0.0351562 3.539062 -0.210938 3.515625 -0.457031 C 3.476562 -0.691406 3.503906 -0.9375 3.585938 -1.160156 C 3.660156 -1.390625 3.792969 -1.59375 3.980469 -1.78125 Z M 6.464844 5.050781 C 6.414062 5 6.441406 4.90625 6.53125 4.761719 C 6.605469 4.617188 6.816406 4.386719 7.144531 4.054688 L 11.246094 -0.101562 C 11.378906 -0.238281 11.429688 -0.40625 11.394531 -0.609375 C 11.359375 -0.8125 11.253906 -1.066406 11.117188 -1.371094 C 11.09375 -1.414062 11.074219 -1.464844 11.074219 -1.5 C 11.066406 -1.539062 11.082031 -1.574219 11.117188 -1.609375 C 11.183594 -1.675781 11.285156 -1.644531 11.429688 -1.5 C 11.472656 -1.457031 11.566406 -1.347656 11.710938 -1.1875 C 11.847656 -1.019531 11.976562 -0.84375 12.097656 -0.65625 C 12.175781 -0.53125 12.242188 -0.414062 12.285156 -0.304688 C 12.3125 -0.191406 12.304688 -0.101562 12.246094 -0.0390625 C 12.160156 0.046875 12.070312 0.105469 11.992188 0.148438 C 11.890625 0.183594 11.796875 0.257812 11.6875 0.371094 L 9.644531 2.445312 L 10.019531 2.8125 C 10.105469 2.898438 10.179688 2.957031 10.265625 2.988281 C 10.332031 3.023438 10.402344 3.039062 10.476562 3.046875 C 10.539062 3.054688 10.605469 3.074219 10.664062 3.082031 C 10.714844 3.097656 10.773438 3.121094 10.828125 3.171875 C 10.910156 3.257812 10.988281 3.351562 11.082031 3.441406 C 11.152344 3.542969 11.226562 3.652344 11.304688 3.78125 C 11.355469 3.863281 11.367188 3.941406 11.367188 4.007812 C 11.339844 4.085938 11.316406 4.144531 11.273438 4.1875 C 11.148438 4.316406 11.003906 4.289062 10.832031 4.121094 L 9.390625 2.699219 L 8.222656 3.886719 L 7.800781 4.3125 C 7.625 4.472656 7.453125 4.628906 7.285156 4.765625 C 7.109375 4.894531 6.941406 4.996094 6.804688 5.0625 C 6.644531 5.125 6.535156 5.117188 6.464844 5.050781 Z M 4.484375 -1.335938 C 4.195312 -1.046875 4.070312 -0.730469 4.125 -0.375 C 4.152344 -0.0117188 4.339844 0.328125 4.664062 0.648438 C 4.980469 0.957031 5.3125 1.132812 5.6875 1.164062 C 6.023438 1.195312 6.347656 1.074219 6.632812 0.785156 C 6.917969 0.496094 7.035156 0.171875 7.007812 -0.175781 C 6.953125 -0.53125 6.773438 -0.859375 6.457031 -1.171875 C 6.132812 -1.492188 5.792969 -1.675781 5.445312 -1.714844 C 5.082031 -1.753906 4.769531 -1.625 4.484375 -1.335938 Z M 8.5 -1.414062 C 8.59375 -1.335938 8.6875 -1.277344 8.78125 -1.238281 C 8.847656 -1.203125 8.925781 -1.179688 9.007812 -1.164062 L 9.152344 -1.105469 C 9.214844 -1.078125 9.265625 -1.046875 9.296875 -1.011719 C 9.382812 -0.925781 9.46875 -0.828125 9.570312 -0.726562 C 9.640625 -0.625 9.726562 -0.507812 9.800781 -0.378906 C 9.886719 -0.195312 9.882812 -0.0507812 9.773438 0.0625 C 9.644531 0.1875 9.492188 0.15625 9.3125 -0.0195312 C 8.648438 -0.675781 8.042969 -1.257812 7.503906 -1.769531 C 6.949219 -2.285156 6.515625 -2.664062 6.210938 -2.933594 C 6.132812 -2.992188 6.054688 -3.03125 5.988281 -3.066406 C 5.902344 -3.097656 5.828125 -3.125 5.75 -3.148438 C 5.648438 -3.183594 5.570312 -3.222656 5.503906 -3.257812 C 5.417969 -3.308594 5.351562 -3.375 5.296875 -3.492188 C 5.203125 -3.671875 5.125 -3.863281 5.074219 -4.085938 C 5.011719 -4.296875 4.96875 -4.457031 4.960938 -4.566406 C 4.960938 -4.636719 4.96875 -4.675781 4.992188 -4.703125 C 5.019531 -4.730469 5.054688 -4.746094 5.09375 -4.738281 C 5.121094 -4.730469 5.164062 -4.6875 5.222656 -4.613281 C 5.335938 -4.453125 5.472656 -4.28125 5.625 -4.132812 C 5.753906 -3.972656 5.890625 -3.835938 6.027344 -3.703125 L 6.648438 -3.085938 C 6.820312 -2.902344 7.007812 -2.714844 7.230469 -2.53125 L 7.632812 -2.941406 C 7.765625 -3.078125 7.835938 -3.214844 7.851562 -3.367188 C 7.839844 -3.511719 7.761719 -3.738281 7.609375 -4.027344 C 7.539062 -4.128906 7.546875 -4.203125 7.617188 -4.273438 C 7.640625 -4.296875 7.683594 -4.304688 7.742188 -4.296875 C 7.785156 -4.289062 7.851562 -4.257812 7.9375 -4.171875 C 7.980469 -4.128906 8.050781 -4.046875 8.160156 -3.9375 C 8.246094 -3.816406 8.355469 -3.675781 8.476562 -3.488281 C 8.554688 -3.363281 8.621094 -3.246094 8.664062 -3.132812 C 8.691406 -3.023438 8.683594 -2.929688 8.625 -2.871094 C 8.539062 -2.785156 8.449219 -2.726562 8.378906 -2.691406 C 8.277344 -2.65625 8.1875 -2.582031 8.078125 -2.46875 L 7.707031 -2.09375 C 7.902344 -1.902344 8.167969 -1.671875 8.5 -1.414062 Z M 4.667969 5.96875 C 4.753906 6.050781 4.847656 6.113281 4.914062 6.144531 C 5 6.160156 5.066406 6.175781 5.125 6.203125 C 5.195312 6.203125 5.261719 6.21875 5.3125 6.234375 C 5.371094 6.242188 5.421875 6.277344 5.476562 6.328125 C 5.558594 6.410156 5.644531 6.496094 5.722656 6.605469 C 5.808594 6.691406 5.886719 6.800781 5.953125 6.933594 C 6.003906 7.019531 6.023438 7.085938 6.007812 7.171875 C 5.996094 7.230469 5.972656 7.289062 5.921875 7.339844 C 5.804688 7.460938 5.652344 7.445312 5.480469 7.277344 L 1.992188 3.902344 C 1.589844 3.507812 1.605469 3.097656 2.027344 2.671875 L 2.632812 2.058594 C 2.785156 1.90625 2.84375 1.726562 2.824219 1.539062 C 2.78125 1.363281 2.683594 1.117188 2.523438 0.804688 C 2.453125 0.703125 2.453125 0.636719 2.519531 0.566406 C 2.589844 0.5 2.691406 0.53125 2.835938 0.675781 C 2.878906 0.71875 2.972656 0.828125 3.117188 0.988281 C 3.253906 1.15625 3.382812 1.332031 3.5 1.519531 C 3.578125 1.644531 3.621094 1.753906 3.640625 1.839844 C 3.648438 1.933594 3.617188 2.019531 3.539062 2.09375 L 2.421875 3.230469 C 2.226562 3.425781 2.21875 3.621094 2.425781 3.824219 Z M 4.667969 5.96875 "/></g></g></g><g fill="#ffffff" fill-opacity="1"><g transform="translate(193.102496, 50.305703)"><g/></g></g><g fill="#ffffff" fill-opacity="1"><g transform="translate(198.795587, 57.864571)"><g><path d="M 8.484375 3.566406 C 8.425781 3.515625 8.378906 3.460938 8.335938 3.429688 C 8.285156 3.390625 8.238281 3.359375 8.199219 3.34375 C 8.144531 3.320312 8.105469 3.300781 8.070312 3.265625 C 8.019531 3.226562 7.996094 3.15625 7.984375 3.066406 C 7.953125 2.945312 7.933594 2.789062 7.910156 2.609375 C 7.882812 2.417969 7.867188 2.273438 7.886719 2.164062 C 7.890625 2.121094 7.898438 2.089844 7.90625 2.054688 C 7.914062 2.023438 7.929688 2 7.972656 1.976562 C 8.011719 1.953125 8.050781 1.972656 8.085938 2.035156 L 8.269531 2.34375 C 8.332031 2.472656 8.386719 2.566406 8.421875 2.628906 L 8.910156 3.46875 C 9.007812 3.632812 9.105469 3.796875 9.210938 3.957031 C 9.304688 4.113281 9.386719 4.257812 9.476562 4.386719 L 11.203125 3.375 C 11.371094 3.28125 11.460938 3.128906 11.480469 2.921875 C 11.5 2.71875 11.464844 2.445312 11.414062 2.117188 C 11.398438 2.070312 11.394531 2.015625 11.402344 1.984375 C 11.40625 1.941406 11.429688 1.910156 11.472656 1.886719 C 11.554688 1.839844 11.644531 1.898438 11.746094 2.074219 C 11.777344 2.125 11.839844 2.253906 11.9375 2.449219 C 12.027344 2.644531 12.105469 2.851562 12.171875 3.0625 C 12.214844 3.203125 12.25 3.335938 12.261719 3.453125 C 12.257812 3.566406 12.226562 3.652344 12.15625 3.695312 C 12.050781 3.757812 11.945312 3.789062 11.863281 3.8125 C 11.753906 3.820312 11.644531 3.867188 11.511719 3.949219 L 7.226562 6.449219 L 6.710938 6.753906 C 6.496094 6.863281 6.292969 6.96875 6.09375 7.058594 C 5.890625 7.132812 5.703125 7.191406 5.554688 7.222656 C 5.382812 7.238281 5.277344 7.203125 5.230469 7.117188 C 5.191406 7.058594 5.242188 6.972656 5.367188 6.855469 C 5.476562 6.738281 5.742188 6.570312 6.144531 6.332031 L 9.15625 4.574219 C 9.058594 4.410156 8.945312 4.238281 8.84375 4.0625 C 8.714844 3.886719 8.601562 3.71875 8.484375 3.566406 Z M 8.6875 0.308594 C 8.113281 0.464844 7.515625 0.535156 6.882812 0.542969 C 6.828125 0.6875 6.796875 0.84375 6.753906 1.007812 C 6.703125 1.164062 6.65625 1.316406 6.632812 1.46875 C 6.585938 1.605469 6.5625 1.730469 6.542969 1.839844 C 6.507812 1.945312 6.496094 2.019531 6.488281 2.050781 C 6.476562 2.128906 6.480469 2.207031 6.515625 2.285156 C 6.53125 2.359375 6.546875 2.433594 6.578125 2.511719 C 6.597656 2.597656 6.632812 2.675781 6.652344 2.761719 C 6.65625 2.839844 6.640625 2.933594 6.617188 3.03125 C 6.535156 3.203125 6.429688 3.378906 6.292969 3.570312 C 6.132812 3.746094 6 3.878906 5.898438 3.9375 C 5.792969 4 5.710938 3.976562 5.664062 3.894531 C 5.644531 3.863281 5.640625 3.808594 5.65625 3.71875 C 5.65625 3.621094 5.675781 3.484375 5.730469 3.300781 L 6.519531 0.535156 C 5.859375 0.503906 5.195312 0.40625 4.527344 0.242188 C 3.851562 0.0820312 3.230469 -0.152344 2.640625 -0.445312 C 2.5625 -0.484375 2.511719 -0.523438 2.476562 -0.558594 C 2.421875 -0.609375 2.414062 -0.644531 2.429688 -0.683594 C 2.449219 -0.75 2.539062 -0.761719 2.683594 -0.707031 C 3.085938 -0.539062 3.523438 -0.40625 4.023438 -0.3125 C 4.496094 -0.214844 4.992188 -0.152344 5.492188 -0.128906 C 5.976562 -0.105469 6.46875 -0.117188 6.945312 -0.160156 C 7.414062 -0.210938 7.84375 -0.28125 8.234375 -0.398438 C 8.292969 -0.417969 8.332031 -0.46875 8.371094 -0.546875 L 8.417969 -0.824219 C 8.410156 -0.929688 8.410156 -1.027344 8.40625 -1.125 C 8.378906 -1.21875 8.371094 -1.28125 8.378906 -1.316406 C 8.359375 -1.441406 8.394531 -1.503906 8.476562 -1.527344 C 8.5 -1.539062 8.542969 -1.535156 8.585938 -1.507812 C 8.625 -1.488281 8.65625 -1.4375 8.695312 -1.347656 C 8.765625 -1.179688 8.824219 -0.980469 8.898438 -0.757812 C 8.957031 -0.542969 8.992188 -0.3125 9.007812 -0.0742188 C 9.003906 0.0390625 8.988281 0.132812 8.949219 0.183594 C 8.894531 0.230469 8.804688 0.269531 8.6875 0.308594 Z M 3.242188 7.472656 C 3.304688 7.578125 3.378906 7.660156 3.4375 7.707031 C 3.515625 7.746094 3.574219 7.78125 3.625 7.820312 C 3.691406 7.835938 3.753906 7.871094 3.796875 7.898438 C 3.851562 7.921875 3.894531 7.96875 3.929688 8.03125 C 3.992188 8.132812 4.050781 8.238281 4.097656 8.363281 C 4.15625 8.46875 4.203125 8.59375 4.234375 8.742188 C 4.261719 8.835938 4.261719 8.90625 4.222656 8.984375 C 4.199219 9.039062 4.160156 9.089844 4.097656 9.125 C 3.953125 9.210938 3.808594 9.15625 3.6875 8.949219 L 1.199219 4.78125 C 0.914062 4.296875 1.035156 3.90625 1.550781 3.605469 L 2.710938 2.925781 C 2.898438 2.820312 3 2.660156 3.03125 2.476562 C 3.035156 2.292969 3.007812 2.03125 2.929688 1.6875 C 2.890625 1.574219 2.90625 1.507812 2.992188 1.457031 C 3.074219 1.410156 3.164062 1.46875 3.265625 1.644531 C 3.296875 1.695312 3.359375 1.828125 3.457031 2.019531 C 3.542969 2.21875 3.621094 2.421875 3.691406 2.632812 C 3.730469 2.773438 3.746094 2.890625 3.738281 2.976562 C 3.722656 3.070312 3.667969 3.144531 3.578125 3.199219 L 1.785156 4.246094 C 1.546875 4.382812 1.492188 4.570312 1.636719 4.820312 Z M 3.242188 7.472656 "/></g></g></g><g fill="#ffffff" fill-opacity="1"><g transform="translate(207.067292, 73.026295)"><g><path d="M 6.578125 8.617188 C 6.484375 8.367188 6.394531 8.09375 6.289062 7.777344 L 5.90625 6.757812 L 5.511719 5.710938 C 5.367188 5.359375 5.222656 5.003906 5.085938 4.644531 L 3.898438 5.089844 C 3.785156 5.132812 3.644531 5.171875 3.476562 5.234375 C 3.292969 5.292969 3.121094 5.34375 2.957031 5.378906 C 2.773438 5.410156 2.613281 5.417969 2.480469 5.40625 C 2.332031 5.386719 2.246094 5.328125 2.210938 5.238281 C 2.1875 5.171875 2.246094 5.097656 2.386719 4.992188 C 2.515625 4.890625 2.800781 4.761719 3.238281 4.597656 L 4.832031 3.996094 C 4.609375 3.480469 4.421875 3.011719 4.25 2.589844 C 4.066406 2.171875 3.917969 1.84375 3.8125 1.628906 C 3.683594 1.421875 3.574219 1.269531 3.480469 1.152344 C 3.390625 1.054688 3.316406 0.957031 3.253906 0.851562 C 3.171875 0.742188 3.136719 0.613281 3.140625 0.457031 C 3.132812 0.191406 3.144531 -0.0429688 3.199219 -0.242188 C 3.222656 -0.457031 3.257812 -0.597656 3.300781 -0.6875 C 3.3125 -0.757812 3.347656 -0.796875 3.394531 -0.8125 C 3.484375 -0.847656 3.558594 -0.785156 3.601562 -0.597656 C 3.648438 -0.371094 3.71875 -0.117188 3.808594 0.15625 C 3.882812 0.421875 3.957031 0.652344 4.035156 0.851562 L 4.242188 1.414062 C 4.34375 1.683594 4.46875 2.007812 4.613281 2.363281 C 4.746094 2.710938 4.886719 3.09375 5.050781 3.492188 C 5.203125 3.894531 5.34375 4.277344 5.5 4.65625 C 5.636719 5.015625 5.773438 5.347656 5.902344 5.65625 C 6.011719 5.949219 6.109375 6.179688 6.191406 6.328125 C 6.316406 6.589844 6.410156 6.769531 6.5 6.878906 C 6.566406 6.980469 6.636719 7.070312 6.714844 7.140625 C 6.761719 7.191406 6.792969 7.242188 6.832031 7.277344 C 6.855469 7.308594 6.882812 7.347656 6.90625 7.40625 C 6.929688 7.472656 6.949219 7.554688 6.980469 7.644531 C 7.003906 7.738281 7.027344 7.832031 7.070312 7.945312 C 7.082031 8.042969 7.105469 8.148438 7.136719 8.265625 C 7.148438 8.363281 7.171875 8.457031 7.179688 8.542969 C 7.195312 8.753906 7.140625 8.890625 7.019531 8.9375 C 6.929688 8.96875 6.847656 8.960938 6.777344 8.910156 C 6.683594 8.859375 6.617188 8.753906 6.578125 8.617188 Z M 4.902344 -0.410156 C 5.234375 -0.0703125 5.601562 0.25 6 0.5625 C 6.378906 0.855469 6.773438 1.128906 7.179688 1.359375 C 7.578125 1.597656 7.96875 1.78125 8.359375 1.941406 C 8.75 2.089844 9.109375 2.199219 9.449219 2.25 C 9.582031 2.261719 9.667969 2.21875 9.726562 2.105469 C 9.746094 2.023438 9.777344 1.933594 9.800781 1.824219 C 9.808594 1.707031 9.828125 1.59375 9.84375 1.5 C 9.84375 1.398438 9.863281 1.339844 9.902344 1.3125 C 9.917969 1.28125 9.949219 1.265625 10.003906 1.273438 C 10.03125 1.277344 10.054688 1.304688 10.09375 1.339844 C 10.117188 1.371094 10.140625 1.4375 10.171875 1.554688 C 10.214844 1.730469 10.253906 1.933594 10.277344 2.167969 C 10.285156 2.394531 10.28125 2.628906 10.261719 2.878906 C 10.25 2.984375 10.199219 3.054688 10.117188 3.113281 C 10.03125 3.15625 9.9375 3.179688 9.84375 3.164062 C 9.652344 3.132812 9.472656 3.097656 9.289062 3.050781 C 9.089844 3 8.886719 2.933594 8.691406 2.855469 L 8.601562 4.9375 C 8.597656 5.066406 8.601562 5.179688 8.644531 5.292969 C 8.667969 5.386719 8.707031 5.484375 8.753906 5.582031 C 8.78125 5.648438 8.820312 5.722656 8.851562 5.804688 C 8.875 5.871094 8.875 5.933594 8.867188 6.015625 C 8.832031 6.195312 8.777344 6.394531 8.726562 6.59375 C 8.660156 6.796875 8.585938 7.003906 8.496094 7.242188 C 8.472656 7.289062 8.453125 7.335938 8.421875 7.386719 C 8.375 7.429688 8.320312 7.460938 8.277344 7.476562 C 8.175781 7.515625 8.089844 7.496094 8.039062 7.425781 C 8 7.390625 7.988281 7.328125 7.980469 7.230469 C 7.957031 7.136719 7.953125 6.996094 7.96875 6.824219 L 8.308594 2.691406 C 7.964844 2.527344 7.636719 2.328125 7.3125 2.117188 C 6.96875 1.886719 6.636719 1.652344 6.339844 1.40625 C 6.027344 1.152344 5.75 0.886719 5.496094 0.625 C 5.222656 0.339844 4.992188 0.0703125 4.816406 -0.195312 C 4.683594 -0.378906 4.648438 -0.476562 4.699219 -0.511719 C 4.738281 -0.539062 4.804688 -0.5 4.902344 -0.410156 Z M 1.796875 7.402344 C 1.839844 7.515625 1.898438 7.609375 1.945312 7.667969 C 2.015625 7.71875 2.070312 7.761719 2.113281 7.808594 C 2.175781 7.835938 2.230469 7.878906 2.269531 7.917969 C 2.320312 7.949219 2.351562 8 2.378906 8.066406 C 2.421875 8.179688 2.460938 8.292969 2.488281 8.425781 C 2.527344 8.535156 2.550781 8.667969 2.558594 8.820312 C 2.570312 8.917969 2.558594 8.988281 2.507812 9.058594 C 2.472656 9.109375 2.425781 9.152344 2.359375 9.175781 C 2.203125 9.234375 2.070312 9.15625 1.984375 8.933594 L 0.128906 4.125 C -0.0703125 3.597656 0.113281 3.234375 0.675781 3.023438 L 1.671875 2.648438 C 1.875 2.574219 2.003906 2.433594 2.066406 2.257812 C 2.101562 2.078125 2.117188 1.816406 2.097656 1.464844 C 2.078125 1.34375 2.109375 1.28125 2.199219 1.25 C 2.289062 1.214844 2.367188 1.289062 2.4375 1.476562 C 2.457031 1.535156 2.496094 1.671875 2.5625 1.878906 C 2.617188 2.089844 2.65625 2.304688 2.6875 2.523438 C 2.707031 2.671875 2.699219 2.789062 2.679688 2.871094 C 2.648438 2.960938 2.582031 3.023438 2.480469 3.0625 L 0.800781 3.695312 C 0.539062 3.792969 0.453125 3.964844 0.554688 4.234375 Z M 1.796875 7.402344 "/></g></g></g><g fill="#ffffff" fill-opacity="1"><g transform="translate(212.662683, 89.366132)"><g><path d="M 5.050781 0.761719 C 5.453125 0.683594 5.828125 0.796875 6.179688 1.105469 C 6.53125 1.40625 6.777344 1.917969 6.914062 2.636719 C 7.050781 3.34375 7.011719 3.898438 6.796875 4.320312 C 6.582031 4.726562 6.277344 4.980469 5.878906 5.058594 C 5.5 5.128906 5.167969 5.035156 4.847656 4.78125 C 4.519531 4.527344 4.28125 4.109375 4.121094 3.527344 L 3.425781 3.660156 C 3.507812 3.964844 3.613281 4.261719 3.722656 4.582031 L 4.046875 5.496094 C 4.152344 5.792969 4.253906 6.078125 4.375 6.371094 C 4.476562 6.65625 4.578125 6.929688 4.675781 7.179688 L 9.558594 6.242188 C 9.746094 6.207031 9.886719 6.09375 9.972656 5.90625 C 10.058594 5.71875 10.117188 5.453125 10.175781 5.121094 C 10.175781 5.074219 10.191406 5.023438 10.210938 4.992188 C 10.226562 4.953125 10.261719 4.933594 10.308594 4.925781 C 10.402344 4.910156 10.464844 4.992188 10.503906 5.195312 C 10.515625 5.253906 10.53125 5.394531 10.5625 5.609375 C 10.578125 5.828125 10.582031 6.042969 10.578125 6.265625 C 10.570312 6.414062 10.558594 6.550781 10.53125 6.664062 C 10.492188 6.769531 10.429688 6.84375 10.347656 6.859375 C 10.230469 6.882812 10.121094 6.878906 10.035156 6.871094 C 9.929688 6.839844 9.8125 6.851562 9.65625 6.882812 L 6.609375 7.46875 L 6.710938 7.984375 C 6.730469 8.101562 6.761719 8.195312 6.8125 8.269531 C 6.851562 8.335938 6.898438 8.390625 6.957031 8.4375 C 7 8.480469 7.046875 8.53125 7.089844 8.570312 C 7.121094 8.613281 7.15625 8.667969 7.171875 8.738281 C 7.195312 8.855469 7.203125 8.976562 7.230469 9.105469 C 7.230469 9.226562 7.230469 9.363281 7.222656 9.511719 C 7.214844 9.609375 7.179688 9.675781 7.144531 9.734375 C 7.078125 9.78125 7.023438 9.816406 6.964844 9.828125 C 6.789062 9.863281 6.683594 9.761719 6.640625 9.523438 L 6.257812 7.535156 L 4.480469 7.878906 L 3.890625 7.988281 C 3.652344 8.023438 3.425781 8.054688 3.210938 8.070312 C 2.992188 8.078125 2.796875 8.066406 2.644531 8.046875 C 2.476562 8.003906 2.390625 7.9375 2.375 7.84375 C 2.359375 7.773438 2.433594 7.707031 2.589844 7.640625 C 2.734375 7.566406 3.039062 7.496094 3.5 7.40625 L 4.34375 7.242188 C 3.964844 6.414062 3.632812 5.574219 3.320312 4.707031 C 2.996094 3.84375 2.691406 2.960938 2.421875 2.0625 C 2.375 1.949219 2.335938 1.859375 2.296875 1.792969 C 2.242188 1.703125 2.195312 1.640625 2.148438 1.589844 C 2.082031 1.503906 2.042969 1.425781 2.007812 1.359375 C 1.953125 1.273438 1.945312 1.164062 1.964844 1.027344 C 2.003906 0.773438 2.066406 0.53125 2.144531 0.296875 C 2.207031 0.0625 2.265625 -0.09375 2.324219 -0.164062 C 2.332031 -0.191406 2.351562 -0.207031 2.375 -0.222656 C 2.390625 -0.253906 2.414062 -0.269531 2.449219 -0.277344 C 2.503906 -0.296875 2.546875 -0.28125 2.582031 -0.214844 C 2.601562 -0.171875 2.617188 -0.101562 2.617188 -0.0273438 C 2.625 0.191406 2.644531 0.429688 2.691406 0.667969 C 2.710938 0.894531 2.75 1.105469 2.792969 1.320312 C 2.824219 1.496094 2.871094 1.730469 2.953125 2.03125 C 3.023438 2.324219 3.109375 2.648438 3.226562 3.015625 L 3.992188 2.871094 C 3.910156 2.25 3.976562 1.773438 4.191406 1.414062 C 4.386719 1.046875 4.675781 0.835938 5.050781 0.761719 Z M 5.214844 1.414062 C 4.933594 1.46875 4.730469 1.628906 4.605469 1.921875 C 4.460938 2.195312 4.4375 2.589844 4.535156 3.09375 C 4.632812 3.589844 4.796875 3.933594 5.03125 4.144531 C 5.253906 4.347656 5.503906 4.433594 5.785156 4.378906 C 6.066406 4.324219 6.265625 4.152344 6.410156 3.882812 C 6.527344 3.601562 6.550781 3.21875 6.453125 2.726562 C 6.359375 2.21875 6.191406 1.859375 5.980469 1.65625 C 5.742188 1.433594 5.496094 1.359375 5.214844 1.414062 Z M 8.292969 3.519531 C 8.328125 3.636719 8.371094 3.738281 8.421875 3.824219 C 8.460938 3.890625 8.507812 3.953125 8.570312 4.015625 L 8.65625 4.144531 C 8.691406 4.199219 8.714844 4.257812 8.722656 4.304688 C 8.746094 4.421875 8.757812 4.554688 8.785156 4.695312 C 8.785156 4.816406 8.789062 4.960938 8.78125 5.109375 C 8.746094 5.3125 8.660156 5.425781 8.503906 5.457031 C 8.328125 5.488281 8.222656 5.375 8.175781 5.128906 C 7.824219 3.304688 7.535156 2.003906 7.3125 1.21875 C 7.28125 1.125 7.242188 1.046875 7.207031 0.984375 C 7.15625 0.90625 7.105469 0.84375 7.058594 0.777344 C 6.992188 0.695312 6.953125 0.617188 6.914062 0.550781 C 6.875 0.460938 6.855469 0.367188 6.878906 0.238281 C 6.902344 0.0390625 6.949219 -0.164062 7.03125 -0.375 C 7.101562 -0.582031 7.15625 -0.742188 7.210938 -0.835938 C 7.25 -0.894531 7.277344 -0.921875 7.316406 -0.929688 C 7.351562 -0.9375 7.386719 -0.933594 7.417969 -0.902344 C 7.433594 -0.878906 7.445312 -0.820312 7.453125 -0.722656 C 7.453125 -0.53125 7.46875 -0.3125 7.511719 -0.101562 C 7.523438 0.101562 7.5625 0.292969 7.597656 0.480469 L 7.765625 1.351562 C 7.808594 1.585938 7.859375 1.832031 7.917969 2.089844 L 8.355469 2.007812 C 8.542969 1.96875 8.675781 1.894531 8.773438 1.78125 C 8.847656 1.65625 8.914062 1.421875 8.949219 1.097656 C 8.949219 0.976562 9 0.917969 9.09375 0.898438 C 9.128906 0.894531 9.167969 0.910156 9.214844 0.949219 C 9.242188 0.980469 9.28125 1.046875 9.304688 1.164062 C 9.316406 1.222656 9.324219 1.332031 9.351562 1.484375 C 9.355469 1.632812 9.367188 1.8125 9.359375 2.03125 C 9.351562 2.179688 9.34375 2.316406 9.316406 2.433594 C 9.273438 2.539062 9.214844 2.609375 9.132812 2.625 C 9.015625 2.648438 8.90625 2.644531 8.828125 2.636719 C 8.726562 2.605469 8.605469 2.617188 8.453125 2.648438 L 8.078125 2.71875 C 8.097656 2.835938 8.132812 2.953125 8.171875 3.089844 C 8.199219 3.21875 8.238281 3.359375 8.292969 3.519531 Z M 0.503906 7.519531 C 0.527344 7.636719 0.570312 7.738281 0.609375 7.804688 C 0.667969 7.863281 0.714844 7.917969 0.75 7.972656 C 0.808594 8.007812 0.855469 8.0625 0.886719 8.105469 C 0.929688 8.144531 0.953125 8.199219 0.96875 8.269531 C 0.988281 8.390625 1.011719 8.507812 1.015625 8.640625 C 1.035156 8.757812 1.039062 8.890625 1.019531 9.042969 C 1.011719 9.140625 0.988281 9.207031 0.925781 9.269531 C 0.886719 9.3125 0.832031 9.347656 0.761719 9.359375 C 0.597656 9.390625 0.480469 9.292969 0.433594 9.058594 L -0.5625 4.113281 C -0.671875 3.558594 -0.429688 3.230469 0.160156 3.117188 L 0.703125 3.015625 C 0.914062 2.972656 1.0625 2.859375 1.152344 2.695312 C 1.21875 2.523438 1.277344 2.269531 1.320312 1.917969 C 1.320312 1.796875 1.359375 1.738281 1.453125 1.722656 C 1.546875 1.703125 1.613281 1.789062 1.652344 1.988281 C 1.664062 2.046875 1.679688 2.191406 1.707031 2.40625 C 1.722656 2.621094 1.730469 2.839844 1.722656 3.0625 C 1.714844 3.210938 1.6875 3.324219 1.65625 3.402344 C 1.609375 3.484375 1.535156 3.539062 1.429688 3.558594 L 0.167969 3.800781 C -0.101562 3.851562 -0.21875 4.007812 -0.164062 4.289062 Z M 0.503906 7.519531 "/></g></g></g><g fill="#ffffff" fill-opacity="1"><g transform="translate(65.994104, 98.289391)"><g><path d="M 19.347656 -15.113281 L 21.523438 -15.113281 L 21.523438 -20.363281 C 21.523438 -20.71875 21.40625 -20.988281 21.195312 -21.226562 C 20.957031 -21.433594 20.511719 -21.644531 19.886719 -21.882812 C 19.585938 -21.972656 19.378906 -22.089844 19.230469 -22.210938 C 19.050781 -22.300781 18.960938 -22.449219 18.960938 -22.6875 C 18.960938 -23.195312 19.4375 -23.460938 20.421875 -23.460938 C 20.601562 -23.460938 20.957031 -23.433594 21.433594 -23.402344 C 21.882812 -23.34375 22.390625 -23.253906 22.925781 -23.132812 C 23.433594 -23.015625 23.878906 -22.835938 24.265625 -22.65625 C 24.625 -22.449219 24.832031 -22.152344 24.832031 -21.792969 C 24.832031 -21.554688 24.773438 -21.316406 24.714844 -21.105469 C 24.59375 -20.867188 24.566406 -20.539062 24.566406 -20.0625 L 24.566406 -13.175781 C 24.566406 -12.640625 24.535156 -11.984375 24.535156 -11.210938 C 24.507812 -10.375 24.445312 -9.601562 24.355469 -8.855469 C 24.238281 -8.078125 24.058594 -7.453125 23.820312 -6.917969 C 23.582031 -6.351562 23.222656 -6.082031 22.777344 -6.082031 C 22.359375 -6.082031 22.0625 -6.46875 21.851562 -7.246094 C 21.613281 -7.988281 21.523438 -9.0625 21.523438 -10.464844 L 21.523438 -12.9375 L 19.347656 -12.9375 C 19.347656 -12.371094 19.320312 -11.714844 19.320312 -10.941406 C 19.289062 -10.167969 19.230469 -9.421875 19.109375 -8.707031 C 18.992188 -7.988281 18.8125 -7.363281 18.574219 -6.886719 C 18.335938 -6.378906 17.976562 -6.140625 17.558594 -6.140625 C 17.140625 -6.140625 16.84375 -6.527344 16.636719 -7.304688 C 16.398438 -8.050781 16.308594 -9.121094 16.308594 -10.523438 L 16.308594 -18.664062 C 16.308594 -19.019531 16.1875 -19.289062 15.980469 -19.527344 C 15.742188 -19.734375 15.292969 -19.945312 14.667969 -20.183594 C 14.042969 -20.363281 13.742188 -20.628906 13.742188 -20.988281 C 13.742188 -21.496094 14.21875 -21.761719 15.203125 -21.761719 C 15.382812 -21.761719 15.742188 -21.734375 16.21875 -21.703125 C 16.664062 -21.644531 17.171875 -21.554688 17.707031 -21.433594 C 18.214844 -21.316406 18.664062 -21.136719 19.050781 -20.957031 C 19.40625 -20.75 19.617188 -20.453125 19.617188 -20.09375 C 19.617188 -19.855469 19.558594 -19.617188 19.496094 -19.40625 C 19.378906 -19.167969 19.347656 -18.839844 19.347656 -18.363281 Z M 6.410156 -16.636719 C 6.648438 -16.636719 6.855469 -16.636719 7.09375 -16.664062 L 7.09375 -18.007812 C 7.09375 -18.335938 6.917969 -18.601562 6.589844 -18.8125 C 6.230469 -18.992188 5.785156 -19.167969 5.21875 -19.40625 C 4.800781 -19.527344 4.621094 -19.796875 4.652344 -20.210938 C 4.679688 -20.628906 5.066406 -20.867188 5.8125 -20.867188 C 5.992188 -20.867188 6.320312 -20.839844 6.796875 -20.808594 C 7.214844 -20.75 7.722656 -20.691406 8.257812 -20.570312 C 8.707031 -20.453125 9.121094 -20.332031 9.539062 -20.152344 C 9.925781 -19.945312 10.136719 -19.675781 10.136719 -19.378906 C 10.136719 -19.199219 10.105469 -19.078125 10.105469 -19.019531 C 10.046875 -18.902344 10.015625 -18.8125 10.015625 -18.691406 C 9.957031 -18.574219 9.925781 -18.425781 9.925781 -18.246094 C 9.867188 -18.066406 9.867188 -17.828125 9.867188 -17.53125 L 9.867188 -16.84375 C 10.195312 -16.902344 10.464844 -16.992188 10.671875 -17.140625 C 10.851562 -17.261719 11.121094 -17.320312 11.449219 -17.320312 C 11.746094 -17.320312 12.042969 -17.292969 12.34375 -17.292969 C 12.640625 -17.261719 12.910156 -17.203125 13.148438 -17.140625 C 13.386719 -17.054688 13.566406 -16.964844 13.742188 -16.84375 C 13.863281 -16.695312 13.953125 -16.515625 13.953125 -16.308594 C 13.953125 -16.007812 13.832031 -15.769531 13.652344 -15.53125 C 13.414062 -15.265625 13.238281 -14.996094 13.117188 -14.699219 C 12.820312 -14.132812 12.550781 -13.59375 12.253906 -13.085938 C 11.925781 -12.550781 11.566406 -12.042969 11.179688 -11.539062 L 11.507812 -11.269531 C 11.625 -11.148438 11.804688 -11.058594 11.984375 -11.03125 C 12.132812 -10.972656 12.28125 -10.972656 12.402344 -11 C 12.671875 -11 12.9375 -10.972656 13.175781 -10.910156 C 13.414062 -10.820312 13.625 -10.671875 13.863281 -10.433594 C 13.953125 -10.316406 14.101562 -10.136719 14.28125 -9.925781 C 14.429688 -9.6875 14.578125 -9.421875 14.757812 -9.183594 C 14.90625 -8.882812 15.054688 -8.617188 15.203125 -8.347656 C 15.324219 -8.050781 15.382812 -7.8125 15.414062 -7.632812 C 15.441406 -7.394531 15.414062 -7.183594 15.292969 -7.066406 C 15.144531 -6.886719 14.964844 -6.796875 14.757812 -6.765625 C 14.519531 -6.738281 14.308594 -6.765625 14.070312 -6.886719 C 13.804688 -6.976562 13.476562 -7.183594 13.058594 -7.542969 L 9.925781 -10.078125 C 8.945312 -9.003906 7.839844 -8.019531 6.617188 -7.09375 C 5.367188 -6.140625 4.023438 -5.277344 2.5625 -4.441406 C 2.265625 -4.261719 2.027344 -4.203125 1.820312 -4.203125 C 1.578125 -4.203125 1.402344 -4.261719 1.3125 -4.441406 C 1.253906 -4.53125 1.222656 -4.679688 1.253906 -4.859375 C 1.253906 -5.007812 1.371094 -5.1875 1.640625 -5.367188 C 3.429688 -6.679688 5.066406 -8.109375 6.527344 -9.71875 C 7.960938 -11.269531 9.09375 -13 9.867188 -14.847656 C 9.152344 -14.816406 8.617188 -14.785156 8.199219 -14.757812 C 7.75 -14.699219 7.304688 -14.667969 6.886719 -14.636719 C 6.648438 -14.609375 6.441406 -14.546875 6.261719 -14.460938 L 5.722656 -14.191406 C 5.546875 -14.101562 5.335938 -14.042969 5.15625 -14.042969 C 4.917969 -13.980469 4.679688 -14.011719 4.414062 -14.132812 C 4.234375 -14.191406 4.023438 -14.28125 3.785156 -14.429688 C 3.519531 -14.546875 3.28125 -14.667969 3.039062 -14.847656 C 2.773438 -14.964844 2.535156 -15.113281 2.324219 -15.292969 C 2.085938 -15.441406 1.90625 -15.59375 1.789062 -15.710938 C 1.609375 -15.859375 1.550781 -16.039062 1.550781 -16.246094 C 1.550781 -16.726562 1.90625 -16.933594 2.625 -16.8125 C 3.101562 -16.726562 3.605469 -16.664062 4.203125 -16.664062 C 4.738281 -16.636719 5.246094 -16.636719 5.664062 -16.636719 Z M 24.117188 0.269531 C 24.117188 0.566406 24.058594 0.953125 24 1.460938 C 23.910156 1.9375 23.789062 2.386719 23.671875 2.863281 C 23.492188 3.308594 23.3125 3.695312 23.105469 4.054688 C 22.867188 4.351562 22.597656 4.53125 22.300781 4.53125 C 21.824219 4.53125 21.523438 4.234375 21.347656 3.667969 C 21.167969 3.070312 21.078125 2.085938 21.078125 0.6875 L 21.078125 -3.011719 C 20.660156 -3.011719 20.0625 -2.980469 19.289062 -2.980469 C 18.484375 -2.953125 17.679688 -2.921875 16.84375 -2.921875 C 15.980469 -2.863281 15.175781 -2.832031 14.429688 -2.832031 C 13.652344 -2.773438 13.085938 -2.742188 12.730469 -2.714844 C 12.550781 -2.683594 12.402344 -2.652344 12.28125 -2.59375 C 12.105469 -2.535156 11.953125 -2.445312 11.835938 -2.386719 C 11.597656 -2.207031 11.328125 -2.117188 11.03125 -2.058594 C 10.734375 -1.996094 10.375 -2.027344 9.988281 -2.175781 C 9.570312 -2.296875 9.152344 -2.503906 8.675781 -2.800781 C 8.167969 -3.039062 7.722656 -3.339844 7.332031 -3.667969 C 7.035156 -3.90625 6.886719 -4.144531 6.886719 -4.414062 C 6.886719 -4.589844 6.945312 -4.738281 7.125 -4.859375 C 7.246094 -4.917969 7.511719 -4.949219 7.871094 -4.917969 C 8.347656 -4.828125 8.882812 -4.769531 9.511719 -4.769531 C 10.105469 -4.738281 10.613281 -4.738281 11.03125 -4.738281 C 11.386719 -4.738281 11.984375 -4.738281 12.789062 -4.769531 C 13.566406 -4.769531 14.398438 -4.769531 15.292969 -4.800781 C 16.160156 -4.800781 17.023438 -4.828125 17.859375 -4.890625 C 18.691406 -4.890625 19.347656 -4.917969 19.855469 -4.980469 C 20.152344 -4.980469 20.390625 -5.039062 20.570312 -5.097656 C 20.75 -5.128906 20.898438 -5.1875 21.046875 -5.246094 C 21.167969 -5.304688 21.285156 -5.335938 21.433594 -5.394531 C 21.554688 -5.425781 21.734375 -5.457031 21.941406 -5.457031 C 22.210938 -5.457031 22.507812 -5.425781 22.835938 -5.394531 L 23.730469 -5.21875 C 24 -5.097656 24.238281 -4.980469 24.445312 -4.828125 C 24.625 -4.652344 24.714844 -4.472656 24.714844 -4.234375 C 24.714844 -4.054688 24.683594 -3.875 24.65625 -3.757812 C 24.59375 -3.605469 24.535156 -3.457031 24.476562 -3.339844 C 24.417969 -3.160156 24.355469 -3.011719 24.328125 -2.832031 C 24.265625 -2.625 24.238281 -2.386719 24.238281 -2.085938 Z M 24.117188 0.269531 "/></g></g></g><g fill="#ffffff" fill-opacity="1"><g transform="translate(99.980322, 98.289391)"><g><path d="M 15.59375 -8.617188 L 15.59375 -2.921875 C 16.546875 -2.921875 17.410156 -2.953125 18.1875 -3.011719 C 18.960938 -3.011719 19.558594 -3.039062 19.972656 -3.101562 C 20.570312 -3.128906 21.046875 -3.191406 21.375 -3.308594 C 21.671875 -3.367188 21.914062 -3.457031 22.121094 -3.578125 C 22.300781 -3.636719 22.449219 -3.695312 22.628906 -3.757812 C 22.746094 -3.785156 22.925781 -3.816406 23.164062 -3.816406 C 23.550781 -3.816406 24.027344 -3.785156 24.566406 -3.726562 C 25.074219 -3.636719 25.519531 -3.546875 25.9375 -3.457031 C 26.800781 -3.21875 27.25 -2.800781 27.25 -2.207031 C 27.25 -1.789062 27.070312 -1.492188 26.773438 -1.253906 C 26.445312 -1.011719 25.996094 -0.894531 25.398438 -0.925781 C 24.746094 -0.925781 24.027344 -0.953125 23.195312 -0.984375 L 20.480469 -0.984375 C 19.230469 -0.984375 17.945312 -0.953125 16.636719 -0.953125 C 15.292969 -0.925781 14.042969 -0.894531 12.847656 -0.894531 C 11.65625 -0.835938 10.582031 -0.804688 9.628906 -0.773438 C 8.644531 -0.714844 7.871094 -0.65625 7.332031 -0.597656 C 6.886719 -0.535156 6.46875 -0.417969 6.082031 -0.269531 C 5.695312 -0.121094 5.367188 0 5.097656 0.0585938 C 4.800781 0.121094 4.441406 0.0898438 3.964844 -0.0898438 C 3.367188 -0.296875 2.863281 -0.535156 2.445312 -0.804688 C 1.996094 -1.042969 1.667969 -1.253906 1.429688 -1.429688 C 1.011719 -1.730469 0.773438 -1.996094 0.773438 -2.296875 C 0.714844 -2.535156 0.773438 -2.742188 0.953125 -2.921875 C 1.101562 -3.101562 1.402344 -3.160156 1.847656 -3.128906 C 2.148438 -3.070312 2.472656 -3.039062 2.832031 -3.011719 L 3.933594 -2.921875 C 4.292969 -2.890625 4.679688 -2.890625 5.039062 -2.890625 C 5.367188 -2.863281 5.664062 -2.863281 5.933594 -2.863281 L 8.40625 -2.863281 C 9.003906 -2.863281 9.628906 -2.863281 10.34375 -2.890625 L 12.492188 -2.890625 L 12.492188 -8.585938 L 8.824219 -8.554688 C 7.871094 -8.527344 7.214844 -8.707031 6.828125 -9.121094 C 6.410156 -9.511719 6.199219 -10.167969 6.199219 -11.089844 L 6.199219 -16.726562 C 6.199219 -17.054688 6.050781 -17.351562 5.753906 -17.589844 C 5.425781 -17.796875 4.949219 -18.007812 4.324219 -18.246094 C 4.023438 -18.335938 3.816406 -18.453125 3.667969 -18.574219 C 3.488281 -18.664062 3.398438 -18.839844 3.398438 -19.109375 C 3.398438 -19.585938 3.875 -19.824219 4.859375 -19.824219 C 5.039062 -19.824219 5.425781 -19.796875 6.023438 -19.765625 C 6.558594 -19.707031 7.125 -19.617188 7.660156 -19.496094 C 7.75 -19.4375 7.839844 -19.4375 7.929688 -19.4375 C 7.988281 -19.40625 8.050781 -19.378906 8.140625 -19.347656 L 16.84375 -19.496094 C 17.023438 -19.496094 17.230469 -19.527344 17.410156 -19.644531 C 17.558594 -19.707031 17.707031 -19.796875 17.886719 -19.914062 C 18.007812 -19.972656 18.15625 -20.0625 18.335938 -20.152344 C 18.484375 -20.210938 18.664062 -20.273438 18.902344 -20.273438 C 19.558594 -20.273438 20.273438 -20.183594 21.019531 -20.035156 C 21.464844 -19.914062 21.761719 -19.765625 21.941406 -19.527344 C 22.089844 -19.257812 22.179688 -18.992188 22.179688 -18.722656 C 22.179688 -18.363281 22.03125 -18.066406 21.792969 -17.859375 C 21.496094 -17.621094 21.105469 -17.53125 20.570312 -17.53125 L 9.300781 -17.378906 L 9.300781 -11.179688 C 9.300781 -10.882812 9.332031 -10.703125 9.421875 -10.644531 C 9.480469 -10.554688 9.660156 -10.523438 9.957031 -10.523438 L 17.441406 -10.644531 C 17.621094 -10.644531 17.769531 -10.671875 17.945312 -10.761719 C 18.097656 -10.820312 18.246094 -10.910156 18.425781 -11.03125 C 18.574219 -11.121094 18.753906 -11.210938 18.929688 -11.300781 C 19.078125 -11.359375 19.257812 -11.417969 19.496094 -11.417969 C 19.824219 -11.417969 20.183594 -11.386719 20.539062 -11.386719 C 20.898438 -11.328125 21.226562 -11.269531 21.585938 -11.179688 C 21.972656 -11.058594 22.269531 -10.910156 22.480469 -10.671875 C 22.65625 -10.40625 22.777344 -10.136719 22.777344 -9.867188 C 22.777344 -9.511719 22.628906 -9.210938 22.390625 -9.003906 C 22.089844 -8.765625 21.703125 -8.675781 21.167969 -8.675781 Z M 15.59375 -8.617188 "/></g></g></g><g fill="#ffffff" fill-opacity="1"><g transform="translate(133.96654, 98.289391)"><g><path d="M 19.644531 -4.589844 C 19.644531 -4.054688 19.617188 -3.398438 19.617188 -2.625 C 19.585938 -1.789062 19.527344 -1.011719 19.4375 -0.269531 C 19.320312 0.476562 19.140625 1.132812 18.902344 1.699219 C 18.664062 2.234375 18.304688 2.503906 17.859375 2.503906 C 17.441406 2.503906 17.140625 2.117188 16.933594 1.371094 C 16.695312 0.597656 16.605469 -0.476562 16.605469 -1.878906 L 16.605469 -11.449219 C 16.335938 -11.417969 16.097656 -11.386719 15.859375 -11.386719 L 15.144531 -11.300781 C 14.847656 -11.238281 14.636719 -11.148438 14.488281 -11.03125 C 14.308594 -10.851562 14.070312 -10.792969 13.773438 -10.792969 C 13.59375 -10.792969 13.414062 -10.820312 13.238281 -10.882812 C 12.9375 -10.972656 12.550781 -11.121094 12.132812 -11.328125 C 11.6875 -11.507812 11.359375 -11.6875 11.121094 -11.867188 C 10.941406 -11.953125 10.820312 -12.074219 10.734375 -12.222656 C 10.613281 -12.34375 10.554688 -12.492188 10.554688 -12.671875 C 10.554688 -12.878906 10.613281 -13.058594 10.761719 -13.207031 C 10.882812 -13.328125 11.089844 -13.355469 11.449219 -13.355469 C 11.867188 -13.328125 12.222656 -13.328125 12.460938 -13.328125 L 14.667969 -13.328125 C 15.324219 -13.328125 15.980469 -13.328125 16.605469 -13.355469 L 16.605469 -18.511719 C 16.605469 -18.871094 16.484375 -19.140625 16.277344 -19.378906 C 16.039062 -19.585938 15.59375 -19.796875 14.964844 -20.035156 C 14.339844 -20.210938 14.042969 -20.480469 14.042969 -20.839844 C 14.042969 -21.347656 14.519531 -21.613281 15.503906 -21.613281 C 15.679688 -21.613281 16.039062 -21.585938 16.515625 -21.554688 C 16.964844 -21.496094 17.46875 -21.40625 18.007812 -21.285156 C 18.511719 -21.167969 18.960938 -21.019531 19.347656 -20.839844 C 19.707031 -20.628906 19.886719 -20.390625 19.886719 -20.09375 C 19.886719 -19.855469 19.824219 -19.585938 19.765625 -19.347656 C 19.675781 -19.050781 19.644531 -18.691406 19.644531 -18.214844 Z M 24.566406 -2.890625 C 24.566406 -2.355469 24.535156 -1.699219 24.535156 -0.925781 C 24.507812 -0.0898438 24.445312 0.65625 24.355469 1.429688 C 24.238281 2.175781 24.058594 2.832031 23.820312 3.398438 C 23.582031 3.933594 23.222656 4.203125 22.777344 4.203125 C 22.359375 4.203125 22.0625 3.816406 21.851562 3.070312 C 21.613281 2.296875 21.523438 1.191406 21.523438 -0.179688 L 21.523438 -20.363281 C 21.523438 -20.71875 21.40625 -20.988281 21.195312 -21.226562 C 20.957031 -21.433594 20.511719 -21.644531 19.886719 -21.882812 C 19.257812 -22.0625 18.960938 -22.328125 18.960938 -22.6875 C 18.960938 -23.195312 19.4375 -23.460938 20.421875 -23.460938 C 20.601562 -23.460938 20.957031 -23.433594 21.433594 -23.402344 C 21.882812 -23.34375 22.390625 -23.253906 22.925781 -23.132812 C 23.433594 -23.015625 23.878906 -22.867188 24.265625 -22.6875 C 24.625 -22.480469 24.804688 -22.238281 24.804688 -21.941406 C 24.804688 -21.703125 24.746094 -21.433594 24.683594 -21.195312 C 24.59375 -20.898438 24.566406 -20.539062 24.566406 -20.0625 Z M 3.488281 -14.964844 C 3.488281 -15.292969 3.339844 -15.5625 3.070312 -15.800781 C 2.773438 -16.007812 2.296875 -16.21875 1.699219 -16.457031 C 1.402344 -16.546875 1.191406 -16.664062 1.011719 -16.785156 C 0.804688 -16.902344 0.714844 -17.082031 0.773438 -17.378906 C 0.804688 -17.769531 1.28125 -17.976562 2.234375 -17.976562 C 2.414062 -17.976562 2.800781 -17.945312 3.367188 -17.917969 C 3.90625 -17.859375 4.472656 -17.796875 5.007812 -17.679688 C 5.515625 -17.558594 5.960938 -17.410156 6.351562 -17.261719 C 6.707031 -17.082031 6.917969 -16.8125 6.917969 -16.484375 C 6.917969 -16.246094 6.886719 -15.980469 6.828125 -15.742188 C 6.765625 -15.441406 6.738281 -15.085938 6.738281 -14.609375 L 6.738281 -7.273438 C 6.738281 -7.035156 6.765625 -6.855469 6.855469 -6.707031 C 6.917969 -6.527344 7.15625 -6.46875 7.574219 -6.5 C 8.707031 -6.527344 9.808594 -6.617188 10.882812 -6.738281 C 11.925781 -6.828125 13.085938 -7.007812 14.398438 -7.273438 C 14.726562 -7.332031 15.027344 -7.394531 15.292969 -7.394531 C 15.53125 -7.394531 15.679688 -7.273438 15.800781 -7.066406 C 15.890625 -6.765625 15.859375 -6.527344 15.742188 -6.351562 C 15.59375 -6.140625 15.351562 -5.992188 15.054688 -5.875 C 14.339844 -5.605469 13.625 -5.367188 12.847656 -5.15625 C 12.042969 -4.917969 11.238281 -4.710938 10.464844 -4.5625 C 9.660156 -4.382812 8.882812 -4.234375 8.167969 -4.144531 C 7.421875 -4.023438 6.765625 -3.996094 6.199219 -3.996094 C 5.246094 -3.996094 4.5625 -4.234375 4.144531 -4.710938 C 3.695312 -5.15625 3.488281 -5.933594 3.488281 -7.007812 Z M 3.488281 -14.964844 "/></g></g></g><g clip-path="url(#cecad850ce)"><path stroke-linecap="round" transform="matrix(0.745312, 0, 0, 0.745312, 38.858252, 117.510694)" fill="none" stroke-linejoin="miter" d="M 0.49941 0.499278 L 201.138835 0.499278 " stroke="#ffffff" stroke-width="1" stroke-opacity="1" stroke-miterlimit="4"/></g></svg>